<?xml version="1.0" standalone="no"?>
<!DOCTYPE svg PUBLIC "-//W3C//DTD SVG 1.1//EN" "http://www.w3.org/Graphics/SVG/1.1/DTD/svg11.dtd" >
<svg xmlns="http://www.w3.org/2000/svg" xmlns:xlink="http://www.w3.org/1999/xlink" version="1.1">
<metadata>
Created by FontForge 20150318 at Tue Mar 31 03:16:03 2015
 By uniteet7
Copyright (c) 1992 Corel Corporation. All Rights Reserved.
</metadata>
<defs>
<font id="Ottawa" horiz-adv-x="2281" >
  <font-face 
    font-family="Ottawa"
    font-weight="400"
    font-stretch="normal"
    units-per-em="4096"
    panose-1="2 11 114 0 0 0 0 0 0 0"
    ascent="3276"
    descent="-820"
    x-height="1929"
    cap-height="2793"
    bbox="-135 -1081 4190 3793"
    underline-thickness="50"
    underline-position="-75"
    unicode-range="U+0020-F002"
  />
<missing-glyph horiz-adv-x="3072" 
d="M512 0v2560h2048v-2560h-2048zM2494 66v2428h-1916v-2428h1916z" />
    <glyph glyph-name=".notdef" horiz-adv-x="3072" 
d="M512 0v2560h2048v-2560h-2048zM2494 66v2428h-1916v-2428h1916z" />
    <glyph glyph-name=".null" horiz-adv-x="0" 
 />
    <glyph glyph-name="nonmarkingreturn" horiz-adv-x="0" 
 />
    <glyph glyph-name="space" unicode=" " horiz-adv-x="1135" 
 />
    <glyph glyph-name="exclam" unicode="!" horiz-adv-x="1360" 
d="M430 201q6 111 84.5 178t165.5 67q107 0 178.5 -76t71.5 -169q0 -107 -78 -178.5t-172 -71.5q-104 6 -177 82.5t-73 167.5zM639 713q-48 568 -74.5 865t-47.5 528.5t-30 351.5q0 69 -8 110q14 287 201 287q192 0 192 -295q0 -265 -21 -532t-64 -690.5t-58 -624.5h-90z
" />
    <glyph glyph-name="quotedbl" unicode="&#x22;" horiz-adv-x="1360" 
d="M209 1831v696q8 0 -8 82q3 12 14.5 91.5t40 117t96.5 37.5q74 0 100.5 -53t34.5 -148q0 -28 -3 -67t-5 -60v-696q8 0 8 -94q-14 -152 -143 -152q-65 0 -87.5 26.5t-33 85.5t-22.5 81q5 18 6.5 32.5t1.5 20.5zM881 1831v696q-9 0 -9 135q14 91 38 142t106 51
q88 0 111.5 -71.5t23.5 -182.5v-74v-696v-45q0 -201 -135 -201q-144 0 -144 160q0 16 3.5 43.5t5.5 42.5z" />
    <glyph glyph-name="numbersign" unicode="#" 
d="M438 0l140 889h-443v221h471l90 553h-446v225h479l127 832h242l-131 -832h544l119 832h242l-119 -832h397v-225h-430l-90 -553h418v-221h-446l-132 -889h-237l127 889h-553l-135 -889h-234zM848 1110h553l78 553h-541z" />
    <glyph glyph-name="dollar" unicode="$" 
d="M426 520q27 -37 110 -143.5t214 -182t323 -75.5v1147q-217 75 -368.5 168t-239.5 232t-88 333q0 306 182 502t514 252v311h168v-303q178 0 342.5 -47t271.5 -138q-49 -110 -102 -327h-49q-147 333 -463 352v-1032q258 -92 406.5 -176.5t233 -216t85.5 -336.5
q0 -182 -71.5 -359.5t-234.5 -313t-419 -183.5v-455h-168v422q-271 0 -449 46t-321 171q72 195 82 352h41zM1241 143q218 56 312 212t94 333q0 143 -53.5 236.5t-133 146t-219.5 121.5v-1049zM1073 1638v947q-161 -31 -269 -156t-108 -295q0 -185 95.5 -299t281.5 -197z" />
    <glyph glyph-name="percent" unicode="%" horiz-adv-x="3641" 
d="M479 2015q0 -240 92.5 -380t259.5 -140q179 0 274 173.5t95 445.5q0 532 -336 532q-222 0 -303.5 -192t-81.5 -439zM922 -135l1519 2990q17 -4 47 -8t47 -8q21 4 52 8t47 8l-1528 -2990q-15 4 -48 8t-50 8q-14 -3 -44.5 -7.5t-41.5 -8.5zM2122 623q0 192 93 350t252 248
t343 90q290 -6 456 -202t166 -470q0 -197 -95 -355.5t-246.5 -245.5t-313.5 -87q-202 0 -351 90t-226.5 243.5t-77.5 338.5zM2417 586q0 -247 92.5 -388t259.5 -141q183 7 276 175t93 432q0 544 -336 544q-222 0 -303.5 -190t-81.5 -432zM184 2073q0 202 96.5 357.5t256 239
t335.5 83.5q184 0 327 -89.5t219.5 -241.5t76.5 -333q0 -121 -44 -245t-130.5 -226.5t-212 -163.5t-277.5 -61q-197 0 -343.5 91.5t-225 247.5t-78.5 341z" />
    <glyph glyph-name="ampersand" unicode="&#x26;" horiz-adv-x="2961" 
d="M1040 1503q-278 385 -278 631q0 319 200 469t431 150q260 -12 399 -129t145 -306q0 -187 -129.5 -367.5t-431.5 -373.5q265 -345 396 -508.5t325 -372.5q297 417 488 799q24 -27 46.5 -52.5t51.5 -56.5t53 -51q-103 -220 -545 -749l512 -594q-204 16 -245 16
q-50 0 -124 -8t-118 -8q-120 185 -254 344q-141 -146 -358.5 -267t-485.5 -126q-271 0 -451.5 90.5t-269.5 232.5t-102 295q0 366 213.5 570.5t531.5 371.5zM1303 1663q426 290 426 618q0 151 -78.5 246.5t-208.5 114.5q-188 0 -290.5 -108.5t-102.5 -276.5q0 -269 254 -594
zM1880 426q-185 230 -289.5 359.5t-245 310t-239.5 313.5q-160 -113 -241.5 -180t-159.5 -193t-82 -291q4 -28 6 -41.5t5.5 -36t6.5 -41.5t6 -40q49 -214 206 -337.5t372 -129.5q349 13 655 307z" />
    <glyph glyph-name="quotesingle" unicode="'" horiz-adv-x="1135" 
d="M217 1712l279 905q46 133 84.5 182.5t107.5 55.5q67 0 117.5 -40t50.5 -112q0 -82 -86 -217l-491 -807z" />
    <glyph glyph-name="parenleft" unicode="(" horiz-adv-x="1135" 
d="M905 -418q-199 223 -330.5 450.5t-199.5 445.5t-92.5 427.5t-24.5 437.5q0 382 95.5 717.5t244.5 589.5t307 414l86 -78q-189 -245 -294 -553.5t-141 -595.5t-36 -555q0 -347 48 -611.5t121 -447.5t156 -320.5t146 -238.5z" />
    <glyph glyph-name="parenright" unicode=")" horiz-adv-x="1135" 
d="M233 -418l-81 82q273 446 368 762q103 390 103 856q0 253 -22.5 469.5t-75 428.5t-145 416.5t-228.5 393.5l81 74q216 -235 361.5 -510t220 -582t74.5 -629q0 -365 -66 -661.5t-210 -564.5t-380 -535z" />
    <glyph glyph-name="asterisk" unicode="*" horiz-adv-x="1815" 
d="M807 2089l-590 262q95 95 119 209l520 -369l-65 631q53 -20 122 -20q64 0 119 20l-65 -639l512 377q63 -130 123 -209l-578 -262l578 -250q-90 -141 -115 -209l-529 369l74 -639q-21 0 -61 4t-58 4q-27 0 -68 -4t-54 -4l65 622l-504 -364q-47 122 -119 205z" />
    <glyph glyph-name="plus" unicode="+" horiz-adv-x="2478" 
d="M209 1176h901v897h266v-897h905v-263h-905v-913h-266v913h-901v263z" />
    <glyph glyph-name="comma" unicode="," horiz-adv-x="1135" 
d="M258 -688l-65 33q43 152 139 454t139 451q74 229 193 229q72 0 119.5 -39.5t47.5 -111.5q0 -76 -86 -217q-147 -241 -182 -298.5t-100.5 -165t-204.5 -335.5z" />
    <glyph glyph-name="hyphen" unicode="-" horiz-adv-x="1360" 
d="M168 1032h1024v-258h-1024v258z" />
    <glyph glyph-name="period" unicode="." horiz-adv-x="1135" 
d="M569 446q104 0 175 -71t71 -174q0 -102 -72 -176t-174 -74q-103 0 -176.5 74.5t-73.5 175.5q0 102 72.5 173.5t177.5 71.5z" />
    <glyph glyph-name="slash" unicode="/" horiz-adv-x="1135" 
d="M1241 3064l-696 -2097l-471 -1385q-58 0 -90 8q-41 -8 -119 -8l704 2097l463 1385q74 0 103 -8q41 8 106 8z" />
    <glyph glyph-name="zero" unicode="0" 
d="M176 1282q10 247 26 419t107 427t301.5 435.5t565.5 180.5q388 0 592 -217t265.5 -493.5t63.5 -554.5v-103q0 -191 -31.5 -412t-127 -449.5t-291.5 -389.5t-504 -174q-571 0 -769 408.5t-198 922.5zM520 1343q4 -261 20.5 -458.5t77 -383.5t190.5 -302t343 -117
q610 0 610 1294q0 361 -68 643.5t-198.5 440t-310.5 157.5h-17q-176 -10 -313.5 -84.5t-235.5 -323.5t-98 -734v-132z" />
    <glyph glyph-name="one" unicode="1" 
d="M385 2384q522 202 864 426l70 -25v-2801q-31 4 -81 8t-79 8q-26 -4 -83.5 -8.5t-84.5 -7.5v2482l-33 12l-454 -246q-28 82 -119 152z" />
    <glyph glyph-name="two" unicode="2" 
d="M360 2351q134 201 309.5 297t411.5 96q355 0 585 -175.5t230 -561.5q0 -169 -90 -369t-237 -364q-466 -512 -914 -971l25 -45q653 7 1257 53q0 -44 -16 -176q16 -66 16 -135h-1753v66q55 57 303.5 309t405.5 418t277.5 315.5t189.5 275.5q151 282 151 623
q0 172 -48.5 305.5t-157 211t-281.5 77.5q-210 -11 -333 -146t-154 -288l-33 -17z" />
    <glyph glyph-name="three" unicode="3" 
d="M401 2494q36 44 117.5 102t206 103t274.5 45q213 0 391.5 -74t283 -213t104.5 -323q-14 -485 -553 -692q314 -25 497 -193.5t183 -474.5q-10 -207 -126 -395.5t-354.5 -308t-584.5 -119.5q-338 15 -590 135l45 250l24 16q243 -270 562 -270q200 1 347 98t223.5 262
t76.5 365q0 250 -159.5 401.5t-410.5 151.5q-147 -17 -188 -17q4 33 4 82q0 54 -4 86q29 0 111 -16q47 12 120 21t123 25.5t101 60.5q192 164 192 495q0 160 -55.5 278.5t-152.5 180t-218 61.5q-154 -6 -279 -88t-192 -239l-24 -17z" />
    <glyph glyph-name="four" unicode="4" 
d="M86 762v53q102 156 243.5 361t374.5 533t406 565.5t324 445.5q22 -3 61 -7.5t57 -9.5q5 1 136 17v-1721l376 17q-4 -29 -8 -74t-8 -70q4 -20 8 -63.5t8 -63.5l-376 17v-778q-32 4 -89.5 8t-87.5 8q-22 -4 -78.5 -9t-72.5 -7v778h-1274zM1368 999v1311l-25 17
q-154 -210 -289 -399.5t-323 -463t-305 -448.5l12 -17h930z" />
    <glyph glyph-name="five" unicode="5" 
d="M328 393q67 -107 166.5 -176.5t210.5 -100t225 -30.5q155 0 295 86.5t225.5 259t85.5 416.5q0 239 -80.5 382t-206 200t-274.5 57q-255 0 -430 -135l-41 32v1344l33 16h1310l17 -32q-1 -8 -9 -52t-13.5 -82t-10.5 -92q8 -28 8 -78q-120 37 -222.5 53.5t-330.5 16.5h-606
v-917q183 102 438 102q194 0 380 -89.5t304.5 -269.5t118.5 -432q0 -187 -76 -354t-217.5 -294.5t-335 -200t-420.5 -72.5q-180 10 -324.5 38t-305.5 122l61 274z" />
    <glyph glyph-name="six" unicode="6" 
d="M242 1159q4 280 60 519.5t156.5 432t237.5 330.5q312 295 754 295q127 0 180 -8l41 -143q-73 24 -192 24q-233 0 -401 -127t-271 -332.5t-150.5 -438t-50.5 -445.5q89 142 257 253t419 111q196 -5 367.5 -73t289.5 -238t125 -455q0 -174 -57.5 -335.5t-169 -290
t-282 -206.5t-388.5 -81q-272 0 -479 124.5t-326.5 396.5t-119.5 687zM606 770q0 -172 64.5 -329.5t193.5 -258t312 -100.5q261 3 390.5 227t129.5 531q0 309 -146 466t-366 164q-98 0 -229.5 -51.5t-238 -207.5t-110.5 -441z" />
    <glyph glyph-name="seven" unicode="7" 
d="M328 2744h1753v-118q-194 -321 -361 -608t-367 -640.5t-401.5 -726t-353.5 -667.5q-26 3 -70.5 7.5t-72.5 8.5q-20 -4 -69 -9t-67 -7l9 49q124 206 455.5 749.5t554.5 920t407 714.5l-16 16q-509 -7 -1401 -66q8 74 8 168q0 42 -4 105t-4 104z" />
    <glyph glyph-name="eight" unicode="8" 
d="M823 1536q-446 138 -446 561q0 164 89.5 311.5t266 239.5t418.5 96q189 0 337 -45.5t246 -128.5t146.5 -192.5t48.5 -235.5v-8q-4 -148 -74 -269.5t-177.5 -202t-215.5 -110.5v-24q184 -43 318 -137.5t205 -234t71 -308.5q0 -247 -108.5 -452t-317 -325t-495.5 -120
q-319 0 -522 116.5t-291.5 300.5t-88.5 394q0 188 84 347.5t218.5 262.5t287.5 139v25zM713 2056q0 -198 121.5 -332.5t316.5 -146.5q212 0 323 163t111 390q0 134 -52 246.5t-151 176.5t-231 64q-143 0 -242 -83.5t-147.5 -213t-48.5 -264.5zM594 770q3 -311 144 -499.5
t421 -188.5q181 0 302 104t178 267t57 338q0 272 -131 465.5t-414 193.5q-191 0 -317 -110t-183 -268t-57 -302z" />
    <glyph glyph-name="nine" unicode="9" 
d="M184 1872q0 234 101 434t310 319t511 119q344 0 542 -189t270.5 -453t72.5 -525q0 -275 -73 -561t-223 -529t-379 -389.5t-525 -146.5q-227 0 -312 57q-12 87 -86 209l45 16q170 -145 385 -151q286 32 465 251t254.5 518.5t75.5 598.5q-128 -219 -316 -294t-335 -75
q-225 0 -403 97t-279 276.5t-101 417.5zM545 1896q0 -270 125 -458.5t387 -188.5q165 0 294 94.5t198 249.5t69 328q-6 338 -149 517t-379 179q-269 0 -407 -213t-138 -508z" />
    <glyph glyph-name="colon" unicode=":" horiz-adv-x="1135" 
d="M319 201q0 101 76 173t183 72q96 0 166.5 -74t70.5 -171q0 -102 -71 -176t-166 -74q-105 0 -182 74.5t-77 175.5zM319 1679q0 102 76.5 176t182.5 74q94 0 165.5 -76.5t71.5 -173.5q0 -102 -70.5 -173.5t-166.5 -71.5q-105 0 -182 72t-77 173z" />
    <glyph glyph-name="semicolon" unicode=";" horiz-adv-x="1135" 
d="M639 1929q102 0 176 -74t74 -176q0 -101 -74.5 -173t-175.5 -72q-100 0 -169 71.5t-69 173.5q0 103 68.5 176.5t169.5 73.5zM258 -688l-65 33l286 917q39 120 81 168.5t112 48.5q63 0 111 -44.5t48 -106.5q0 -61 -61 -168q-33 -54 -116.5 -193.5t-189 -313t-206.5 -341.5
z" />
    <glyph glyph-name="less" unicode="&#x3c;" horiz-adv-x="2478" 
d="M201 930v221l2089 963v-259l-1753 -815l1753 -815v-258z" />
    <glyph glyph-name="equal" unicode="=" horiz-adv-x="2478" 
d="M2273 1569v-266h-2064v266h2064zM2273 774v-262h-2064v262h2064z" />
    <glyph glyph-name="greater" unicode="&#x3e;" horiz-adv-x="2478" 
d="M2281 930l-2080 -963v258l1753 815l-1753 815v259l2080 -963v-221z" />
    <glyph glyph-name="question" unicode="?" horiz-adv-x="1593" 
d="M754 446q102 0 169.5 -71t67.5 -174t-68.5 -176.5t-168.5 -73.5q-103 0 -176.5 74.5t-73.5 175.5q0 102 72.5 173.5t177.5 71.5zM369 1208q0 169 72 282.5t255 303.5q227 239 302 339.5t75 233.5q-6 154 -115 245t-270 91q-81 0 -183 -48t-161 -136l-25 209
q221 127 410 127q269 0 437.5 -140t168.5 -397q0 -158 -52 -278.5t-114.5 -193t-210.5 -228.5q-35 -40 -113 -125.5t-120 -140.5t-68 -105.5t-34 -103.5q0 -129 60 -209t157 -86q86 14 127 33l32 -17l-57 -119q-54 -15 -111 -24q-111 5 -217 61.5t-175.5 166t-69.5 259.5z
" />
    <glyph glyph-name="at" unicode="@" horiz-adv-x="3281" 
d="M209 1360q3 290 103.5 559.5t293 479.5t473 331.5t633.5 124.5q419 0 721.5 -164t462 -431.5t176.5 -571.5q0 -177 -72.5 -373t-198.5 -364.5t-291 -273t-343 -108.5q-165 0 -251.5 86.5t-100.5 208.5q-145 -143 -247.5 -210.5t-256.5 -67.5q-142 0 -269 75t-205.5 205.5
t-82.5 292.5q32 239 142 455t296 349.5t430 133.5q149 0 258 -60.5t152 -172.5l49 192h360l-307 -1118q0 -28 -12 -66q15 -101 127 -127q115 5 259 121.5t245.5 326.5t101.5 478q-8 246 -140 471t-382 364.5t-588 139.5q-274 0 -514 -90.5t-420.5 -258.5t-280.5 -399
t-100 -505q0 -344 167.5 -630.5t475.5 -453t705 -166.5q236 0 437.5 84.5t347 215t239.5 278.5h254q-119 -222 -321.5 -401.5t-459 -282.5t-530.5 -103q-355 10 -643 130t-487 321.5t-302.5 454.5t-103.5 520zM1184 1384q-52 -161 -66 -327q11 -303 250 -303
q147 0 282 187.5t205 401.5q74 188 74 336q0 126 -56.5 192t-160.5 66q-94 0 -193 -59.5t-186.5 -184t-148.5 -309.5z" />
    <glyph glyph-name="A" unicode="A" horiz-adv-x="2736" 
d="M66 -16l1277 2871h99l1229 -2871q-50 0 -238 16q-32 -4 -95 -8t-97 -8q-186 550 -435 1114h-1036q-92 -233 -167 -423t-137.5 -363.5t-105.5 -327.5q-24 4 -74 8t-77 8q-24 -3 -74 -7.5t-69 -8.5zM848 1266h897l-459 1044z" />
    <glyph glyph-name="B" unicode="B" horiz-adv-x="2503" 
d="M393 0v2793h832q220 0 410.5 -35.5t330 -161.5t139.5 -372q0 -190 -87.5 -339t-234.5 -244.5t-321 -137.5q314 -28 530 -183.5t216 -463.5q0 -252 -128 -448.5t-352 -302t-503 -105.5h-832zM754 1561h245q344 0 546 148.5t208 424.5q0 287 -180.5 394t-499.5 114h-319
v-1081zM754 152h405q175 0 330.5 77.5t248.5 221t93 331.5q0 369 -240 498t-592 129h-245v-1257z" />
    <glyph glyph-name="C" unicode="C" horiz-adv-x="2736" 
d="M160 1409q0 320 109.5 587.5t314 460t490 295.5t630.5 103q440 0 881 -193q-47 -97 -91 -311l-28 -8q-101 113 -231 192t-270.5 119.5t-276.5 40.5q-251 0 -459 -91t-357.5 -263t-230 -416t-80.5 -541q0 -421 157 -712.5t408 -434.5t529 -143q229 0 460.5 93.5
t411.5 242.5l-24 -262q-403 -234 -901 -234q-329 0 -595 99t-456 290.5t-290.5 466.5t-100.5 619z" />
    <glyph glyph-name="D" unicode="D" horiz-adv-x="3183" 
d="M410 2793h1302q509 0 789 -225t374.5 -512.5t94.5 -535.5q0 -249 -67.5 -506t-237.5 -489.5t-476.5 -378.5t-754.5 -146h-1024v2793zM770 2626v-2442q393 -24 664 -24q364 12 616.5 165.5t381 440t128.5 688.5q0 422 -113.5 663.5t-296 346.5t-438.5 153
q-68 10 -221 15.5t-197 9.5q-28 4 -90 4q-63 0 -211.5 -9t-222.5 -11z" />
    <glyph glyph-name="E" unicode="E" horiz-adv-x="2048" 
d="M369 0v2793h1454q-3 -24 -7.5 -68t-9.5 -71q5 -15 9.5 -52.5t7.5 -57.5q-268 57 -733 57h-361v-1032h639q28 0 96.5 4t121.5 8.5t143 11.5q-6 -30 -9.5 -61.5t-7.5 -52.5q4 -15 7 -42.5t10 -68.5q-274 18 -361 25h-639v-1200q45 0 94 -9q106 4 246.5 9t295 13t277.5 18.5
t205 25.5q-3 -19 -7 -55t-9 -60q4 -18 9 -69t7 -66h-1478z" />
    <glyph glyph-name="F" unicode="F" horiz-adv-x="2048" 
d="M369 2793h1446q0 -90 -9 -131q9 -28 9 -118q-248 57 -967 57h-119v-1032h590q51 0 118.5 3.5t138 9.5t153.5 11q-7 -40 -10 -65.5t-7 -48.5q4 -15 7 -42.5t10 -68.5q-94 6 -172 12.5t-128.5 9.5t-109.5 3h-590v-1409q-73 24 -168 24q-100 0 -192 -24v2809z" />
    <glyph glyph-name="G" unicode="G" horiz-adv-x="3183" 
d="M262 1393q4 572 275 899t632.5 445t694.5 118q659 -19 1040 -238l-86 -319h-49q-137 156 -358.5 276.5t-571.5 120.5q-246 -3 -458 -81t-374 -239.5t-252.5 -410.5t-90.5 -580q0 -404 149.5 -695.5t426 -443t648.5 -151.5q380 0 639 139v1053q32 -2 92 -5t93 -7
q17 2 176 12v-1159q-335 -100 -559.5 -143t-550.5 -50q-488 0 -831 185t-515 510t-174 739q2 9 3 16t1 9z" />
    <glyph glyph-name="H" unicode="H" horiz-adv-x="3183" 
d="M369 -8v2801q31 -4 85 -8t83 -8q33 4 95.5 8t96.5 8v-1175q576 -18 832 -25q369 14 897 25v1175q31 -4 85 -8t83 -8q33 4 95.5 8t96.5 8v-2801q-106 0 -176 8q-66 -8 -184 -8v1409q-852 16 -873 16q-28 0 -856 -16v-1409q-131 0 -192 8q-58 -8 -168 -8z" />
    <glyph glyph-name="I" unicode="I" horiz-adv-x="1135" 
d="M393 2793q25 -4 81.5 -8t86.5 -8q31 4 96 8t97 8v-2809q-26 4 -90 8t-95 8q-30 -4 -90.5 -8t-85.5 -8v2809z" />
    <glyph glyph-name="J" unicode="J" horiz-adv-x="1135" 
d="M446 2793q28 -4 81 -8t79 -8q34 4 99.5 8t101.5 8v-2498q0 -256 -109.5 -451t-300.5 -302t-422 -111l-32 114q319 17 411 219.5t92 522.5v2506z" />
    <glyph glyph-name="K" unicode="K" horiz-adv-x="2503" 
d="M377 -16v2809q20 0 168 -16q30 4 94.5 8.5t97.5 7.5v-1273q9 -9 21 -9q67 0 348 295l958 987q70 0 152 -16q148 16 168 16q-160 -161 -308.5 -305t-227 -219t-350.5 -340t-392 -385q169 -194 337.5 -381t343.5 -382.5t343 -395t303 -377.5v-24q-37 4 -109 8t-108 8
q-238 -16 -242 -16q-87 137 -216 299.5t-300.5 362t-326.5 378.5t-250 295q-89 106 -127 106h-17v-1441q-32 4 -91.5 8t-92.5 8q-26 -4 -85 -8t-91 -8z" />
    <glyph glyph-name="L" unicode="L" horiz-adv-x="2048" 
d="M369 0v2793q29 -4 78 -8t73 -8q35 4 102.5 8.5t106.5 7.5v-2600q70 0 127 -9q230 8 528 27t471 39q-3 -23 -7.5 -69t-8.5 -70q16 -90 16 -111h-1486z" />
    <glyph glyph-name="M" unicode="M" horiz-adv-x="3641" 
d="M184 -16q59 386 118.5 793t98.5 686t85 621.5t92 708.5h102q48 -94 232.5 -455t336 -648.5t299 -551t291.5 -499.5q99 181 295 541t340.5 624t245.5 448.5t295 540.5h90q57 -544 85.5 -796.5t70 -599.5t95.5 -760.5t85 -652.5q-37 3 -106.5 7t-102.5 9q-148 -16 -176 -16
q-21 244 -55 618.5t-51 557.5t-44 439t-59 506q-248 -446 -414 -750t-336 -638t-328 -684h-40q-162 334 -331.5 669t-387.5 755t-338 648q-9 -86 -57 -492t-75 -651.5t-46.5 -494.5t-22.5 -483q-25 4 -76 8t-76 8q-23 -4 -66 -8t-69 -8z" />
    <glyph glyph-name="N" unicode="N" horiz-adv-x="3183" 
d="M410 -16v2809h159q323 -351 745 -809t596.5 -647t608.5 -657h41v2113q20 -4 58 -8t53 -8q21 4 61 8t61 8v-2809h-131q-189 219 -444.5 507t-482 539.5t-475 526.5t-580.5 643h-41v-2216q-21 4 -63 8t-64 8q-17 -3 -52 -7.5t-50 -8.5z" />
    <glyph glyph-name="O" unicode="O" horiz-adv-x="3408" 
d="M176 1384q0 383 178 723t515.5 544t785.5 204h33q399 -9 695 -127t485.5 -314t280.5 -443.5t91 -520.5q0 -353 -118 -635t-332.5 -480.5t-495.5 -299.5t-598 -101h-17q-387 5 -724 150t-552.5 469t-226.5 831zM578 1368q0 -409 141 -699t395 -439.5t590 -155.5
q294 0 550.5 159t413 451.5t171.5 667.5q0 19 2 53t2 53q0 392 -139 672t-392 429t-583 161q-384 0 -643.5 -189t-383.5 -498t-124 -665z" />
    <glyph glyph-name="P" unicode="P" 
d="M688 1274v-1290q-32 4 -91 8t-93 8q-33 -4 -93 -8t-92 -8v2097v712h914q328 -5 520 -77t276.5 -217.5t84.5 -376.5q0 -245 -96.5 -410t-286.5 -266t-490 -164q-52 -6 -134.5 -13.5t-115.5 -11.5q-240 17 -303 17zM688 2634v-1200q111 0 184 -9q70 9 218 9
q304 26 475.5 206.5t171.5 456.5q0 223 -114.5 367.5t-348.5 161.5q-98 8 -377 8h-209z" />
    <glyph glyph-name="Q" unicode="Q" horiz-adv-x="3408" 
d="M176 1384q0 334 122 608.5t335 466.5t488.5 294t574.5 102q330 -6 609 -95.5t486.5 -263.5t325 -436t123.5 -606q0 -503 -265.5 -879.5t-807.5 -566.5q141 -101 429.5 -323.5t483.5 -364.5q-232 -106 -311 -168q-71 75 -232.5 220.5t-354 303.5t-351.5 275
q-114 -8 -168 -8q-455 0 -794 184.5t-517.5 507t-183.5 725.5q5 10 6.5 16t1.5 8zM578 1335q0 -339 96.5 -581.5t258 -391t351 -216t387.5 -72.5q376 0 635 188.5t388 493.5t145 661q0 15 2 41t2 41q0 218 -63 429.5t-197.5 391t-349 288.5t-504.5 112q-363 0 -623 -177.5
t-394 -493t-134 -714.5z" />
    <glyph glyph-name="R" unicode="R" horiz-adv-x="2503" 
d="M369 -16v2809h897q464 0 674 -155.5t210 -470.5q0 -252 -140 -417t-331 -247.5t-376 -109.5q159 -198 290 -364.5t331.5 -419t256.5 -323t244 -302.5q-52 4 -142 8t-141 8q-30 -4 -93 -8t-95 -8q-675 937 -1065 1376h-160v-1376q-32 4 -92 8t-92 8q-29 -4 -87 -8t-89 -8z
M729 1511q74 -8 201 -8q332 0 524 99t262 236t70 276q0 285 -211 408.5t-518 123.5q-60 0 -172 -2t-156 -2v-1131z" />
    <glyph glyph-name="S" unicode="S" horiz-adv-x="2048" 
d="M258 2089q10 272 146 444t337 247t418 75q181 0 343 -58t251 -143q-22 -47 -115 -336h-36q-52 137 -176 249t-336 112q-146 0 -263 -63t-183 -171t-66 -237q0 -354 380 -520l426 -177q237 -94 358.5 -252.5t121.5 -427.5q0 -222 -122.5 -429t-357.5 -337.5t-553 -130.5
q-189 8 -368 75.5t-279 166.5q58 161 78 369h41q155 -259 304.5 -337.5t330.5 -96.5q166 0 304 82.5t216 219t78 283.5q0 367 -401 537l-406 168q-201 79 -306 199.5t-135 239.5t-30 249z" />
    <glyph glyph-name="T" unicode="T" 
d="M975 -25v2618h-103q-352 0 -790 -49q4 57 4 118q0 74 -4 131h2118q-6 -37 -9.5 -72.5t-7.5 -58.5q4 -20 7 -48.5t10 -69.5q-394 49 -865 49v-2618q-33 5 -92 9t-92 8q-25 -4 -83.5 -8.5t-92.5 -8.5z" />
    <glyph glyph-name="U" unicode="U" horiz-adv-x="3183" 
d="M385 1073v1720q30 -4 82 -8t78 -8q138 16 200 16v-1720q0 -234 66.5 -441.5t267.5 -356t568 -148.5q258 0 432.5 92t274.5 244.5t140.5 331t40.5 372.5v1626q14 -2 55 -7t56 -9q23 4 62.5 8.5t60.5 7.5v-1675q0 -377 -143.5 -644t-415 -403.5t-649.5 -136.5
q-437 0 -698 148.5t-369.5 401.5t-108.5 589z" />
    <glyph glyph-name="V" unicode="V" horiz-adv-x="2736" 
d="M94 2793q36 -4 106.5 -8t102.5 -8q33 4 96 8t97 8q109 -291 220 -577.5t237.5 -604.5t246.5 -615.5t225 -565.5h37q122 251 238.5 528.5t221.5 551t251 670.5t227 613q24 -3 67.5 -7.5t67.5 -8.5q27 4 79.5 8.5t80.5 7.5q-160 -351 -316.5 -707t-300 -697.5t-279.5 -679
t-288 -725.5q-16 4 -44 8t-42 8q-18 -4 -41.5 -8t-40.5 -8q-151 322 -260.5 566t-319 723t-366 838t-303.5 682z" />
    <glyph glyph-name="W" unicode="W" horiz-adv-x="4096" 
d="M942 -16q-468 1550 -893 2809q33 -3 93.5 -7.5t90.5 -8.5q29 4 95.5 8.5t101.5 7.5q441 -1541 705 -2355h41q548 1575 790 2355q41 0 123 -16q23 4 61 8.5t58 7.5l778 -2355h37q339 1000 737 2355q23 -4 61.5 -8t57.5 -8q29 5 85 9t83 7q-71 -169 -159.5 -417
t-254 -740.5t-304 -898t-265.5 -753.5q-20 4 -65 8t-70 8q-23 -4 -69.5 -8t-66.5 -8l-745 2306h-33q-98 -288 -212 -623t-195.5 -574t-210 -611t-172.5 -498q-24 4 -71 8t-73 8q-21 -4 -66.5 -8t-72.5 -8z" />
    <glyph glyph-name="X" unicode="X" horiz-adv-x="2503" 
d="M1098 1401q-101 176 -207.5 350t-205 329t-213.5 333t-247 380q34 -4 97 -8t96 -8q39 4 121.5 8.5t124.5 7.5l639 -1105q116 182 250.5 388.5t245 382.5t200.5 334q27 -4 73.5 -8t69.5 -8q28 4 79 8.5t77 7.5q-40 -49 -132 -174.5t-239.5 -333.5t-253 -358t-272.5 -391
q137 -217 241.5 -388t186 -306.5t243 -400.5t279.5 -457q-40 4 -112.5 8t-108.5 8q-38 -4 -111.5 -8t-113.5 -8q-143 292 -331 618t-382 631q-459 -711 -746 -1249q-23 4 -73 8t-78 8q-22 -4 -70 -8t-73 -8q208 309 333.5 494t280.5 417.5t332 505.5z" />
    <glyph glyph-name="Y" unicode="Y" horiz-adv-x="2503" 
d="M1090 1167l-1008 1626q43 -3 121.5 -7.5t115.5 -8.5q39 4 108 8t110 8q353 -660 774 -1376q139 203 270 426.5t244.5 436.5t271.5 513q28 -4 81.5 -8t78.5 -8q28 4 80.5 8.5t79.5 7.5q-86 -108 -228 -321.5t-314.5 -490.5t-289 -477.5t-135.5 -254.5v-1265
q-33 3 -98.5 7.5t-94.5 8.5q-29 -4 -83.5 -8t-83.5 -8v1183z" />
    <glyph glyph-name="Z" unicode="Z" horiz-adv-x="2503" 
d="M242 2793h2150v-81q-237 -310 -444 -591.5t-444.5 -616t-462 -663t-435.5 -648.5v-9h643q330 0 1127 66q-6 -44 -9 -75.5t-8 -55.5q4 -19 7 -48.5t10 -70.5h-2302v86q73 103 447 626t526 736t374 533t426 628v8q-952 0 -1605 -73q0 20 4 66t4 69q0 21 -4 58t-4 56z" />
    <glyph glyph-name="bracketleft" unicode="[" horiz-adv-x="1360" 
d="M553 -471v3535h647v-119h-401v-3305h401v-111h-647z" />
    <glyph glyph-name="backslash" unicode="\" horiz-adv-x="2048" 
d="M393 3064l1520 -3064q-41 8 -135 8q-82 0 -115 -8l-1528 3064q90 0 127 -8q49 8 131 8z" />
    <glyph glyph-name="bracketright" unicode="]" horiz-adv-x="1360" 
d="M807 -471h-639v111h401v3305h-401v119h639v-3535z" />
    <glyph glyph-name="asciicircum" unicode="^" horiz-adv-x="2478" 
d="M496 1126h-287l897 1667h270l897 -1667h-291l-741 1340z" />
    <glyph glyph-name="underscore" unicode="_" horiz-adv-x="2048" 
d="M2048 -655h-2048v159h2048v-159z" />
    <glyph glyph-name="grave" unicode="`" horiz-adv-x="1360" 
d="M840 2183q-333 199 -647 402q-99 70 -107 102q0 25 -4 41q5 143 176 143q29 -5 55.5 -26.5t38.5 -34.5q56 -56 215.5 -213t207 -204t208.5 -210h-143z" />
    <glyph glyph-name="a" unicode="a" horiz-adv-x="2048" 
d="M193 446q0 246 115 371.5t405 181.5q52 14 201 30.5t242 39t160.5 83t67.5 175.5q0 204 -137.5 337.5t-341.5 133.5q-158 0 -297 -74.5t-190 -203.5h-49v225q327 221 663 221q309 0 486.5 -159.5t177.5 -503.5v-984q0 -32 -8 -57q12 -72 29.5 -95t80.5 -48q26 4 68 14
t55 10v-86q-146 -57 -258 -57q-117 0 -195.5 64t-91.5 186q-263 -299 -622 -299q-155 0 -283.5 63.5t-203 178t-74.5 253.5zM1368 410v598q-114 -19 -268.5 -46.5t-278.5 -75t-207.5 -138t-93.5 -236.5q3 -21 7 -57t10 -70q24 -108 123 -184t229 -82q271 14 479 291z" />
    <glyph glyph-name="b" unicode="b" 
d="M262 0v3064q68 0 168 -17q93 17 164 17v-1512q284 414 700 414q218 0 378 -82t261.5 -219t149 -303.5t47.5 -345.5q0 -262 -106.5 -508.5t-317.5 -401.5t-506 -155q-192 0 -342 83.5t-235 215.5q-69 -61 -150.5 -135t-128.5 -115h-82zM586 840q0 -207 65.5 -379.5
t193.5 -273.5t306 -101q224 0 362 140t197 350t59 432q0 331 -136 560.5t-433 229.5q-328 0 -471 -279t-143 -679z" />
    <glyph glyph-name="c" unicode="c" horiz-adv-x="2048" 
d="M168 967q0 284 121.5 511.5t363.5 357.5t588 130q203 0 345 -39t294 -121l-94 -270h-33q-184 295 -520 295q-227 0 -387 -117t-239 -309.5t-79 -413.5q0 -258 91.5 -463t264 -319.5t398.5 -114.5q161 0 283.5 65.5t273.5 200.5l25 -8l-17 -192q-303 -209 -630 -209
q-237 0 -433.5 72.5t-334.5 209t-209.5 322.5t-71.5 412z" />
    <glyph glyph-name="d" unicode="d" 
d="M143 942q4 331 129 563.5t325 346.5t427 114q211 0 375.5 -106t271.5 -283v1487q76 0 176 -17q77 17 152 17v-3080q-30 4 -88 8t-88 8q-26 -4 -76 -8t-76 -8v401q-86 -140 -190 -238t-231.5 -147t-282.5 -49q-286 0 -472 138.5t-269 363.5t-83 489zM504 913
q5 -439 164 -620.5t397 -190.5q184 0 322 116.5t211 323.5t73 474q0 174 -48.5 351t-173 304t-331.5 127q-369 0 -491.5 -274.5t-122.5 -610.5z" />
    <glyph glyph-name="e" unicode="e" horiz-adv-x="2048" 
d="M135 958q9 336 136 562.5t338 336t472 109.5q242 -4 407.5 -94t259 -230.5t131.5 -293t38 -299.5q0 -15 -2 -43t-2 -39q-283 6 -497.5 7t-919.5 1q-4 -33 -4 -90q0 -207 84 -380.5t248.5 -275.5t392.5 -102q285 0 598 283l-9 -209q-145 -108 -326 -179t-370 -71
q-321 0 -542.5 142t-327 372.5t-105.5 492.5zM1593 1126q0 187 -43 347t-157 265t-312 109q-282 0 -422.5 -220.5t-162.5 -500.5h1097z" />
    <glyph glyph-name="f" unicode="f" horiz-adv-x="1135" 
d="M360 -16v1810h-278v70v82h278q63 421 190 669.5t298 348.5t385 100q-7 -57 -25 -246q9 -25 9 -82l-25 -16q-31 17 -59.5 33t-68 24t-97.5 8q-336 0 -353 -434q6 -95 35.5 -246.5t30.5 -158.5h418q0 -5 -17 -82q17 -47 17 -70h-410v-1810q-29 4 -87.5 8t-88.5 8
q-25 -4 -75.5 -8t-76.5 -8z" />
    <glyph glyph-name="g" unicode="g" horiz-adv-x="2048" 
d="M209 1319q0 647 774 647q498 0 746 -20q102 0 176 16v-156l-455 33q287 -220 287 -545q-5 -350 -286 -490t-660 -140q-204 0 -230 -193q16 -105 62 -135q55 -45 148 -54.5t308.5 -9.5t370.5 -14q208 -27 343.5 -155t135.5 -373q0 -241 -133.5 -427t-361.5 -285t-504 -99
q-202 0 -380.5 64.5t-292.5 202.5t-114 343q8 205 119.5 331t315.5 156v33q-259 46 -259 328q0 137 70 212.5t217 147.5q-191 90 -294 222t-103 360zM520 1303q0 -238 124.5 -385.5t322.5 -147.5q202 0 330 148t128 385q0 301 -125 431t-317 130q-247 0 -355 -164t-108 -397
zM401 -455q0 -197 133 -350t449 -153q293 0 470 140.5t177 387.5q0 136 -38.5 232.5t-171 159.5t-388.5 63q-194 -5 -328.5 -44t-216.5 -144.5t-86 -291.5z" />
    <glyph glyph-name="h" unicode="h" 
d="M319 -16v3080q74 0 144 -17q123 17 176 17v-1487q227 389 664 389q356 0 507.5 -210t151.5 -523v-1249q-28 4 -81 8t-83 8q-23 -4 -81 -8.5t-87 -7.5v1159q0 176 -34 312t-132.5 221t-279.5 85q-291 -6 -418 -178.5t-127 -431.5v-1167q-26 4 -79 8t-81 8q-26 -4 -79 -8
t-81 -8z" />
    <glyph glyph-name="i" unicode="i" horiz-adv-x="1135" 
d="M410 -16v1962q49 -6 91.5 -9.5t67.5 -7.5q26 5 69 8t99 9v-1962q-27 4 -84 8t-84 8q-27 -4 -79 -8t-80 -8zM569 2855q89 0 147 -60.5t58 -148.5q0 -86 -58.5 -145.5t-146.5 -59.5q-84 0 -146.5 60.5t-62.5 144.5q0 86 61.5 147.5t147.5 61.5z" />
    <glyph glyph-name="j" unicode="j" horiz-adv-x="1135" 
d="M594 2855q89 0 147 -60.5t58 -148.5q0 -86 -58.5 -145.5t-146.5 -59.5q-85 0 -147 61t-62 144q0 85 61 147t148 62zM430 -25v1971q45 -6 88 -9.5t68 -7.5q30 4 74 7.5t102 9.5v-1627q0 -413 -17 -622q-12 -182 -69.5 -325.5t-153 -245t-220 -154.5t-269.5 -53l-33 131
q25 -8 74 -8q103 0 151 61q92 122 148.5 312.5t56.5 559.5z" />
    <glyph glyph-name="k" unicode="k" horiz-adv-x="2048" 
d="M319 -16v3080q26 -4 77.5 -8t74.5 -9q30 5 88 9t88 8v-1839q0 -41 -8 -74q13 -52 41 -61q91 0 242 135q134 132 339 348.5t341 372.5q66 -25 159 -25q96 0 168 25v-25q-94 -82 -252.5 -218t-234 -201.5t-184.5 -162t-234 -213.5q80 -93 217.5 -252t234.5 -272.5t261 -305
t245 -288.5v-24q-32 4 -99 8t-105 8q-33 -4 -96 -8t-97 -8q-212 272 -663 790q-7 8 -66.5 76.5t-92 96.5t-58.5 28q-58 0 -58 -119v-872q-29 4 -84 8t-84 8q-22 -4 -79.5 -9z" />
    <glyph glyph-name="l" unicode="l" horiz-adv-x="1135" 
d="M410 -16v3080q66 0 176 -17q85 17 151 17v-3080q-30 3 -94 7t-90 9q-26 -4 -70 -8t-73 -8z" />
    <glyph glyph-name="m" unicode="m" horiz-adv-x="3408" 
d="M287 -16v1962q54 0 184 -17q104 17 143 17v-353q231 373 611 373q222 0 383 -111.5t215 -285.5q229 397 643 397q228 0 374.5 -80t217.5 -249t71 -437v-1216q-27 4 -84 8t-84 8q-27 -4 -79 -8t-80 -8v1142q0 315 -103 475t-356 160q-471 0 -471 -626v-1151q-25 4 -78 8
t-82 8q-28 -4 -84 -8t-84 -8v1257q0 206 -90.5 363t-347.5 157q-492 0 -492 -536v-1241q-27 4 -82.5 8t-85.5 8q-21 -5 -76.5 -9t-82.5 -7z" />
    <glyph glyph-name="n" unicode="n" 
d="M311 -16v1962q65 0 144 -17q138 17 184 17v-369q106 161 255 275t409 114q317 0 488 -169t171 -597v-1216q-29 4 -82 8t-82 8q-24 -4 -82 -8.5t-86 -7.5v1114q0 396 -121 529.5t-333 133.5q-294 0 -415.5 -202.5t-121.5 -550.5v-1024q-32 4 -92.5 8t-91.5 8
q-23 -4 -70.5 -8t-73.5 -8z" />
    <glyph glyph-name="o" unicode="o" 
d="M143 913q0 316 134.5 558t366 372.5t507.5 130.5q218 0 401 -75t312.5 -210.5t199 -318.5t70.5 -395q0 -173 -59.5 -352.5t-183 -331.5t-321 -246t-460.5 -94h-4q-283 4 -496 122t-334 335.5t-133 504.5zM504 922q0 -184 50.5 -371t190 -325t381.5 -144
q187 0 336.5 119.5t232.5 322.5t83 443q0 148 -32.5 299.5t-102 282t-184 213t-275.5 85.5q-231 0 -385 -127t-224.5 -337t-70.5 -461z" />
    <glyph glyph-name="p" unicode="p" 
d="M270 1946q53 0 140 -17q147 17 188 17v-410h8q185 430 697 430q197 0 380 -91t307 -302t132 -549q0 -206 -53.5 -395.5t-162 -343t-273 -244t-376.5 -90.5q-214 0 -382.5 105.5t-268.5 295.5h-8v-1417q-29 3 -91.5 7t-88.5 9q-26 -4 -73.5 -8t-74.5 -8v3011zM598 922
q0 -163 41.5 -338.5t175.5 -316t385 -140.5q180 0 305.5 101.5t190.5 301.5t65 486q0 227 -53 409.5t-178.5 294t-329.5 111.5q-174 0 -310.5 -100.5t-214 -305t-77.5 -503.5z" />
    <glyph glyph-name="q" unicode="q" 
d="M143 967q0 295 98 523t285.5 356t440.5 128q252 0 433 -126t263 -320h8v418q38 -6 82 -9.5t70 -7.5q30 4 79.5 7.5t96.5 9.5v-3011q-29 3 -84.5 7.5t-83.5 8.5q-124 -16 -160 -16v1401h-8q-72 -110 -130.5 -181t-182.5 -135.5t-310 -68.5q-237 0 -442 111t-330 340.5
t-125 564.5zM504 1024q0 -369 133 -633t481 -264q180 0 306 120t186.5 305t60.5 370q0 175 -51.5 383.5t-185.5 367t-361 158.5q-569 0 -569 -807z" />
    <glyph glyph-name="r" unicode="r" horiz-adv-x="1360" 
d="M319 -16v1962q65 0 144 -17q157 17 184 17v-410q77 158 223 294t314 136q71 0 127 -12l-54 -344q-87 61 -192 61q-207 0 -312.5 -154t-105.5 -382v-1151q-73 24 -168 24q-85 0 -160 -24z" />
    <glyph glyph-name="s" unicode="s" horiz-adv-x="1593" 
d="M201 1384q0 177 91.5 309.5t242 202.5t321.5 70q294 0 471 -102q-64 -148 -94 -287h-41q-128 262 -361 262q-130 0 -231.5 -68t-120.5 -194q0 -49 -8 -82q6 -120 74 -195t159 -114.5t240.5 -85t214.5 -76.5q283 -135 283 -426q0 -175 -91.5 -320t-263 -232.5
t-399.5 -94.5q-128 0 -275 38.5t-237 96.5q9 35 31 103.5t33 107t18 88.5h29q92 -143 222.5 -223t260.5 -80q171 3 280 114t109 250q0 168 -96 247t-293 130q-228 67 -326 108.5t-170.5 147.5t-72.5 305z" />
    <glyph glyph-name="t" unicode="t" horiz-adv-x="1135" 
d="M295 586v1208h-254q8 29 8 70q0 57 -8 82h254v405l328 127v-532h434q0 -50 -8 -82q8 -25 8 -70h-434v-1122q0 -41 -9 -74q10 -227 67 -357t241 -147q102 13 188 33v-94q-192 -74 -365 -74q-145 0 -225 41q-149 75 -187 217t-38 369z" />
    <glyph glyph-name="u" unicode="u" 
d="M279 680v1266q55 -7 91 -10t60 -7q31 4 77 7.5t99 9.5v-1155q0 -277 116 -458t388 -181q284 0 392 195t108 452v1147q47 0 151 -17q132 17 176 17v-1962q-29 3 -84 7.5t-84 8.5q-26 -4 -77.5 -8.5t-81.5 -7.5v352q-105 -188 -259.5 -280.5t-383.5 -104.5
q-416 0 -552 243.5t-136 485.5z" />
    <glyph glyph-name="v" unicode="v" horiz-adv-x="2048" 
d="M82 1946q92 0 188 -17q140 17 176 17q201 -642 611 -1577q135 257 246.5 504t185.5 442t147.5 410.5t75.5 220.5q49 0 119 -17q104 17 135 17q-157 -336 -244 -529t-188.5 -429.5t-193 -466.5t-205.5 -537q-27 4 -63.5 8t-63.5 8q-13 -4 -55.5 -8.5t-63.5 -7.5
q-446 1146 -807 1962z" />
    <glyph glyph-name="w" unicode="w" horiz-adv-x="3183" 
d="M791 -16q-81 252 -186.5 560t-179.5 509t-165.5 432.5t-185.5 460.5q56 -6 99 -9.5t69 -7.5q30 4 79.5 7.5t108.5 9.5q56 -196 114.5 -385t127.5 -389t150.5 -414.5t127.5 -331.5q103 232 196 461.5t162 418.5t130 372t90 268q37 0 90 -17q79 17 119 17
q228 -805 528 -1520q19 46 110.5 265.5t196 476t180.5 458.5t111 320q39 -6 73.5 -9.5t53.5 -7.5q26 4 59.5 7.5t71.5 9.5q-423 -856 -823 -1962q-19 4 -56 8t-59 8q-16 -4 -49.5 -8t-52.5 -8q-208 744 -504 1486q-117 -222 -272 -641.5t-289 -844.5q-17 3 -54 7t-57 9
q-17 -4 -55.5 -8.5t-58.5 -7.5z" />
    <glyph glyph-name="x" unicode="x" horiz-adv-x="2048" 
d="M864 950l-745 996q95 0 233 -17q140 17 185 17q75 -129 157.5 -252.5t214 -299.5t156.5 -210q213 268 573 762q52 0 156 -17q96 17 127 17q-434 -462 -762 -881l770 -1032v-49q-39 3 -106.5 7.5t-102.5 8.5q-30 -4 -88 -8.5t-88 -7.5q-359 568 -586 847
q-366 -499 -581 -847q-21 3 -59.5 7.5t-59.5 8.5q-17 -4 -61.5 -8.5t-69.5 -7.5v49q417 512 737 917z" />
    <glyph glyph-name="y" unicode="y" horiz-adv-x="2048" 
d="M102 1946q72 0 168 -17q174 17 226 17q106 -306 171.5 -482t128 -326.5t167 -386t143.5 -325.5q162 348 339 792t275 728q40 0 144 -17q87 17 118 17q-117 -265 -312.5 -699.5t-366.5 -819.5t-347.5 -795.5t-291.5 -696.5q-25 3 -74.5 7t-77.5 9q-17 -4 -60.5 -8.5
t-66.5 -7.5q455 890 553 1073z" />
    <glyph glyph-name="z" unicode="z" horiz-adv-x="2048" 
d="M295 1929h1577v-41q-182 -237 -350 -463.5t-250.5 -339t-295 -403.5t-382.5 -522v-8q463 0 1245 65q-2 -17 -6.5 -60t-9.5 -63q1 -3 16 -94h-1753v41q240 295 455.5 575t362.5 478.5t497 674.5v9q-315 0 -529.5 -13.5t-576.5 -44.5q8 41 8 95q0 65 -8 114z" />
    <glyph glyph-name="braceleft" unicode="{" horiz-adv-x="1360" 
d="M242 1286q107 41 161 72.5t100 124.5t50 270v791q0 271 127 393q70 70 184 98.5t320 28.5q-172 -34 -254 -161.5t-82 -309.5v-721q0 -168 -16.5 -272.5t-90.5 -190.5t-229 -123q117 -34 184 -78.5t109.5 -157t42.5 -321.5v-754q0 -176 83.5 -296t252.5 -150h-94
q-272 0 -402 111q-67 64 -101 185.5t-34 260.5v729q0 226 -65.5 323t-245.5 148z" />
    <glyph glyph-name="bar" unicode="|" horiz-adv-x="1360" 
d="M553 0v3064h254v-3064h-254z" />
    <glyph glyph-name="braceright" unicode="}" horiz-adv-x="1360" 
d="M1126 1286q-122 -35 -188 -87t-94.5 -141t-28.5 -243v-733q0 -142 -34 -262.5t-101 -179.5q-136 -119 -455 -119h-41q161 40 248.5 161.5t87.5 292.5v754q0 210 41.5 321t108.5 155t186 81q-155 37 -229 123t-90.5 188.5t-16.5 266.5v721q0 180 -84 308.5t-252 170.5
q369 0 504 -135q60 -63 93.5 -174t33.5 -211v-799q0 -134 28.5 -220t73.5 -129.5t104 -68t105 -41.5z" />
    <glyph glyph-name="asciitilde" unicode="~" horiz-adv-x="2478" 
d="M209 856q76 130 143.5 223t179.5 170.5t259 77.5q103 0 215 -37.5t282 -112.5t253.5 -106t162.5 -31q101 0 218.5 87t207.5 266l151 -168q-255 -451 -577 -451q-85 0 -193.5 37.5t-268.5 107t-268.5 108t-191.5 38.5q-84 0 -153 -40t-119 -98.5t-88.5 -122t-69.5 -116.5z
" />
    <glyph glyph-name="exclamdown" unicode="&#xa1;" horiz-adv-x="1360" 
d="M496 -446l143 1720h90l152 -1700q0 -21 4 -75t4 -85q0 -108 -49 -193t-152 -85q-111 0 -150.5 75t-58.5 211q17 106 17 132zM680 2032q101 0 175.5 -73t74.5 -173q0 -102 -74 -172t-176 -70t-176 70t-74 172q0 100 74.5 173t175.5 73z" />
    <glyph glyph-name="cent" unicode="&#xa2;" 
d="M279 975q0 277 132.5 504.5t371 359t536.5 131.5q53 0 151 -8l148 471q52 -28 143 -41l-139 -446q235 -59 377 -148l-94 -270h-33q-25 25 -25 33q-79 135 -270 225l-487 -1618q167 -62 311 -74q152 6 290 69t291 181l-16 -184q-271 -201 -663 -201q-156 0 -271 25
l-160 -521q-50 50 -143 50l152 503q-602 272 -602 959zM950 258l484 1573q-29 4 -91 4q-195 0 -354 -99t-252.5 -294t-97.5 -467q0 -225 89.5 -424t221.5 -293z" />
    <glyph glyph-name="sterling" unicode="&#xa3;" 
d="M193 0q0 25 4 65t4 62q0 19 -4 63t-4 72q362 0 495 176q119 166 119 492q0 99 -25 430q-88 0 -405 -17v185q135 -25 385 -25q-16 106 -33 312q6 312 108 536t273 328q202 114 442 114q275 0 471 -147q53 -26 66 -78q-34 -33 -90 -103t-86 -98q-23 116 -127 197.5
t-209 81.5q-391 0 -479 -340q-19 -101 -33 -315q4 -99 18.5 -268t14.5 -228q354 0 614 41v-184q-209 8 -614 8q8 -66 8 -193q0 -250 -103.5 -494t-289.5 -403q197 5 363.5 10.5t331.5 12t308.5 12.5t372.5 14q-4 -29 -8 -83t-8 -84q4 -25 8 -74t8 -78h-1896z" />
    <glyph glyph-name="currency" unicode="&#xa4;" 
d="M352 799q-219 275 -233 626q6 184 66 348t159 275l-225 225l176 176l225 -225q283 217 631 217q355 0 610 -209l213 217l176 -176l-213 -217q222 -280 222 -631q0 -176 -60.5 -340t-169.5 -286l213 -213l-176 -176l-213 213q-257 -208 -618 -222q-352 15 -607 222
l-217 -213l-184 168zM377 1417q0 -206 101.5 -381t280 -278t392.5 -103q221 4 395 116.5t270.5 287t96.5 358.5q-5 204 -100 384t-268.5 289.5t-393.5 109.5q-207 0 -384.5 -100t-283.5 -279.5t-106 -403.5z" />
    <glyph glyph-name="yen" unicode="&#xa5;" 
d="M983 1167l-213 385h-528v201h413l-598 1065q36 -4 104.5 -8t100.5 -8q37 4 108 8t109 8q278 -606 721 -1401q93 140 241 418.5t289.5 565.5t198.5 417q25 -4 69.5 -8t65.5 -8q29 4 79.5 8t80.5 8q-111 -170 -171.5 -269.5t-137.5 -233t-176 -308t-146 -254.5h422v-201
h-536l-160 -303v-151h696v-201h-696v-913q-28 4 -86 8t-90 8q-23 -4 -77.5 -8.5t-82.5 -7.5v913h-741v201h741v69z" />
    <glyph glyph-name="brokenbar" unicode="&#xa6;" horiz-adv-x="856" 
d="M553 0v3064h262l-8 -3064h-254z" />
    <glyph glyph-name="section" unicode="&#xa7;" horiz-adv-x="2048" 
d="M528 1815q-95 132 -110 360q13 290 151 442q225 238 566 238q302 0 553 -229q-84 -116 -127 -242h-33q-103 309 -422 328q-134 0 -235 -52t-160.5 -144t-71.5 -210q16 -98 25 -131q40 -117 172.5 -202t380.5 -179q577 -227 577 -610q0 -159 -76.5 -301.5t-156.5 -227.5
q151 -151 151 -376q0 -211 -125.5 -388t-326 -277.5t-412.5 -100.5q-312 13 -569 168q35 136 49 352h41q93 -182 251.5 -275.5t354.5 -93.5q134 0 257.5 68.5t197 174t73.5 212.5q0 173 -100 260.5t-305 173.5q-143 59 -301 127t-277 147.5t-194.5 201t-75.5 290.5
q0 155 81 285t197 211zM1503 713q107 170 107 286q0 270 -451 463q-294 129 -403.5 184t-161.5 115q-154 -133 -164 -307q14 -208 291 -364q99 -58 264.5 -131.5t298.5 -132.5t219 -113z" />
    <glyph glyph-name="dieresis" unicode="&#xa8;" horiz-adv-x="1360" 
d="M279 2634q80 0 132 -53t52 -132q0 -81 -53 -136.5t-131 -55.5q-77 0 -135 57t-58 135q0 76 57 130.5t136 54.5zM1081 2634q79 0 136 -53.5t57 -131.5q0 -80 -58 -136t-135 -56q-78 0 -131 56.5t-53 135.5q0 77 52 131t132 54z" />
    <glyph glyph-name="copyright" unicode="&#xa9;" horiz-adv-x="3072" 
d="M82 1393q0 239 88 493t270 476t458.5 357.5t637.5 135.5q328 0 600 -124t465 -336t295 -474t102 -528q0 -298 -116.5 -565t-322.5 -468.5t-471 -313.5t-552 -112q-297 0 -561.5 113t-467 317t-314 470.5t-111.5 558.5zM303 1393q0 -230 90 -455.5t257 -406.5t394 -284.5
t492 -103.5q327 0 612 171t453 460.5t168 618.5q0 301 -151.5 591.5t-434.5 475.5t-647 186q-359 0 -642 -185.5t-437 -477t-154 -590.5zM680 1401q0 231 110.5 414.5t320 288t491.5 104.5q261 0 520 -103q-17 -52 -31 -115t-18 -77h-17q-69 79 -193.5 127.5t-269.5 48.5
q-168 0 -311.5 -75t-231.5 -230t-92 -375q0 -238 90 -397t232.5 -233t304.5 -74q239 0 520 167l-24 -159q-190 -127 -529 -127q-250 0 -447.5 89t-311 271.5t-113.5 454.5z" />
    <glyph glyph-name="ordfeminine" unicode="&#xaa;" horiz-adv-x="1327" 
d="M49 1937q13 138 82.5 209t196.5 103q95 27 266.5 54t229 42t65.5 55q0 13 4 37t4 37q0 123 -86 201t-250 78q-110 0 -206.5 -43.5t-145.5 -133.5h-25v144q204 135 463 135q471 0 471 -397v-492q0 -53 -8 -102q12 -69 27 -84.5t80 -34.5q32 8 65 8v-49q-65 -33 -176 -33
q-182 0 -209 144q-185 -163 -451 -177q-171 0 -284 93t-113 206zM279 1966q0 -101 80 -161t210 -60q78 0 177.5 58t142.5 110v368q-164 -30 -298 -55.5t-223 -84t-89 -175.5zM102 1282v127h1123v-127h-1123z" />
    <glyph glyph-name="guillemotleft" unicode="&#xab;" horiz-adv-x="2048" 
d="M983 922l512 757q55 -65 160 -110l-463 -647l438 -672q-111 -52 -160 -115zM401 922l512 757q61 -80 152 -110l-459 -647l443 -672q-110 -47 -160 -115z" />
    <glyph glyph-name="logicalnot" unicode="&#xac;" horiz-adv-x="2478" 
d="M2015 463v840h-1806v266h2064v-1106h-258z" />
    <glyph glyph-name="registered" unicode="&#xae;" horiz-adv-x="3072" 
d="M999 614v1569h537q520 0 520 -352q0 -337 -495 -430q246 -305 663 -787q-25 0 -65.5 4.5t-69.5 4.5q-33 0 -77 -4.5t-66 -4.5q-289 392 -643 762h-86v-762q-50 9 -119 9q-58 0 -99 -9zM1217 1503q151 0 200 -8q37 8 86 8q153 0 248.5 86t95.5 209q0 258 -303 258h-327
v-553zM82 1393q0 358 177 693.5t510.5 548.5t766.5 220q312 0 581.5 -122.5t467.5 -332.5t305.5 -471t107.5 -528v-8q-7 -300 -124.5 -565.5t-321.5 -467t-466.5 -314t-549.5 -112.5q-398 0 -729 191t-525 526.5t-200 741.5zM303 1393q0 -308 158 -599t442.5 -471
t632.5 -180q327 0 612 171t453 460.5t168 618.5q0 231 -89.5 456t-254 405t-393.5 286t-496 106q-278 -1 -506 -109t-389.5 -290t-248 -404.5t-89.5 -449.5z" />
    <glyph glyph-name="macron" unicode="&#xaf;" horiz-adv-x="4399" 
d="M2327 3367h1863v-295h-1863v295z" />
    <glyph glyph-name="plusminus" unicode="&#xb1;" horiz-adv-x="2478" 
d="M209 262h2064v-262h-2064v262zM209 1417h901v656h266v-656h897v-266h-897v-664h-266v664h-901v266z" />
    <glyph glyph-name="twosuperior" unicode="&#xb2;" horiz-adv-x="1360" 
d="M111 1135q45 43 249.5 222t326.5 312t201 293.5t79 343.5q0 151 -78.5 249.5t-233.5 98.5q-236 0 -336 -262l-86 119q165 233 480 233q207 -7 355.5 -120t148.5 -314q0 -245 -250 -495q-54 -54 -148.5 -147t-185 -181t-207.5 -205l4 -33q456 13 827 33q-4 -16 -8 -47.5
t-8 -50.5q3 -14 7.5 -44.5t8.5 -41.5h-1146v37z" />
    <glyph glyph-name="threesuperior" unicode="&#xb3;" horiz-adv-x="1360" 
d="M311 2466l-69 127q37 49 144 100t245 51q203 0 357.5 -91t154.5 -269q0 -140 -97.5 -255t-263.5 -163v-4q196 -13 319.5 -113t123.5 -272q0 -157 -94.5 -271.5t-251 -173.5t-342.5 -59q-209 0 -394 70q14 32 33 160h17q152 -152 360 -152q123 0 222.5 52.5t153.5 147
t54 218.5q0 205 -136 270.5t-360 65.5v94q410 0 410 360q0 138 -69.5 216.5t-204.5 78.5q-97 0 -181.5 -52.5t-122.5 -135.5h-8z" />
    <glyph glyph-name="acute" unicode="&#xb4;" horiz-adv-x="1360" 
d="M385 2183l582 586q102 102 176 102q66 0 102.5 -42.5t36.5 -108.5t-106 -135l-648 -402h-143z" />
    <glyph glyph-name="mu" unicode="&#xb5;" 
d="M1602 336q-104 -219 -290 -302t-354 -83q-197 13 -352 115v-1131q-29 4 -84 8t-84 8q-26 -4 -78 -8t-81 -8v3011q52 -6 94 -9.5t65 -7.5q30 4 79.5 7.5t88.5 9.5v-1209q0 -103 44.5 -250.5t123.5 -224.5q127 -110 344 -110q222 6 354 161.5t138 485.5v1147q55 0 159 -17
q132 17 168 17v-1962q-28 4 -87 8t-89 8q-24 -4 -74 -8t-77 -8v352h-8z" />
    <glyph glyph-name="paragraph" unicode="&#xb6;" horiz-adv-x="3281" 
d="M1417 1327q-52 0 -160 -16q-339 6 -562.5 201.5t-223.5 560.5q12 356 208.5 538t577.5 182h1041v-3211q-54 0 -131 17q-70 -17 -127 -17v3080h-361v-3080q-41 0 -118 17q-94 -17 -144 -17v1745zM1417 1442v1220q-135 0 -218 -34.5t-127 -138t-44 -302.5q0 -16 2 -51
t2 -55v-107q5 -68 14.5 -174.5t38.5 -183.5t93.5 -126.5t173.5 -55.5q24 8 65 8z" />
    <glyph glyph-name="periodcentered" unicode="&#xb7;" horiz-adv-x="1135" 
d="M569 1286q104 0 175 -71t71 -175q0 -103 -72 -176t-174 -73q-103 0 -176.5 73.5t-73.5 175.5q0 103 72.5 174.5t177.5 71.5z" />
    <glyph glyph-name="cedilla" unicode="&#xb8;" horiz-adv-x="1360" 
d="M655 0h136l-119 -270q21 3 68.5 9.5t66.5 10.5q155 -6 241.5 -87.5t86.5 -190.5q0 -155 -127.5 -249.5t-401.5 -94.5q-150 0 -303 65l57 119q13 -3 69 -17.5t101 -23t76 -8.5q105 0 173.5 40.5t68.5 127.5q0 153 -193 168q-73 -16 -110 -25l-74 16z" />
    <glyph glyph-name="onesuperior" unicode="&#xb9;" horiz-adv-x="1360" 
d="M696 1057v1478l-24 9l-295 -144q-10 14 -22 33t-24.5 31t-35.5 22q351 135 569 258l41 -16v-1671q-49 8 -114 8q-54 0 -95 -8z" />
    <glyph glyph-name="ordmasculine" unicode="&#xba;" horiz-adv-x="1393" 
d="M49 2257q4 198 101.5 332t251 200t327.5 66q272 0 443 -160t171 -438q0 -172 -85 -314.5t-236.5 -223.5t-341.5 -81q-196 0 -338.5 80.5t-217.5 221t-75 317.5zM279 2224q0 -226 116 -365t310 -139q213 7 309 182t96 363q0 230 -102.5 371t-278.5 141q-229 0 -339.5 -160
t-110.5 -393zM102 1409h1184v-127h-1184v127z" />
    <glyph glyph-name="guillemotright" unicode="&#xbb;" horiz-adv-x="2048" 
d="M856 897l-438 672q113 44 160 110l487 -782l-512 -762q-51 69 -152 115zM1442 897l-443 672q105 34 160 110l496 -782l-520 -762q-49 72 -152 115z" />
    <glyph glyph-name="onequarter" unicode="&#xbc;" horiz-adv-x="3416" 
d="M287 2486q396 153 569 258l41 -8v-1679q-26 0 -65 4t-58 4q-7 0 -35 -4t-51 -4v1478l-16 9l-303 -144q-20 56 -82 86zM1847 455v41q41 61 133.5 185t206 271t285.5 367.5t240 310.5q25 0 73 -12q15 2 44.5 7t49.5 5v-1032l250 8q0 -21 -16 -69q16 -66 16 -91l-250 9v-471
q-21 4 -55 8t-55 8q-13 -4 -47 -8.5t-51 -7.5v471h-824zM2671 598v795l-17 8q-129 -162 -598 -795l17 -8h598zM2281 2793l-1138 -2879q-53 0 -86 4q-33 -4 -107 -4l1147 2879q62 0 86 -8q41 8 98 8z" />
    <glyph glyph-name="onehalf" unicode="&#xbd;" horiz-adv-x="3416" 
d="M287 2486q396 153 569 258l41 -8v-1679q-26 0 -65 4t-58 4q-7 0 -35 -4t-51 -4v1478l-16 9l-303 -144q-20 56 -82 86zM2224 2793l-1143 -2879q-49 0 -82 4q-32 -4 -102 -4l1143 2879q28 0 102 -16q66 16 82 16zM2105 1409q147 229 471 229q229 0 375 -105t146 -341
q0 -190 -201 -422q-178 -176 -319.5 -315t-278.5 -279l12 -24q122 0 242.5 4.5t251 11.5t325.5 16q0 -24 -16 -90q16 -56 16 -110l-1147 16v41q32 29 242.5 211.5t335.5 317.5t206 293.5t81 336.5q0 164 -76 262.5t-236 98.5q-241 -13 -344 -275z" />
    <glyph glyph-name="threequarters" unicode="&#xbe;" horiz-adv-x="3416" 
d="M2376 2793l-1135 -2879q-57 0 -90 4q-33 -4 -94 -4l1143 2879q57 0 90 -8q28 8 86 8zM2744 598v795l-16 8q-214 -262 -598 -795l12 -8h602zM1921 455v41q47 70 137 189.5t214 279.5t275.5 354.5t237.5 310.5q22 0 70 -12q15 2 45.5 7t52.5 5v-1032l246 8q0 -21 -16 -69
q16 -66 16 -91l-246 9v-471q-19 4 -56 8t-58 8q-11 -4 -44.5 -8.5t-50.5 -7.5v471h-823zM561 1905v94h94q163 0 237.5 102t74.5 258q0 138 -68.5 216.5t-202.5 78.5q-97 0 -178.5 -52.5t-116.5 -135.5h-16l-74 127q151 151 394 151q128 0 245 -37.5t192 -117t75 -197.5
q0 -146 -94.5 -259t-266.5 -167v-4q192 -13 315 -110t123 -267q0 -159 -89 -275t-242.5 -176.5t-339.5 -60.5q-221 0 -406 70q12 28 17 49t8.5 50t7.5 52l12 9q159 -152 361 -152q206 0 320 119.5t114 306.5q0 202 -137 265t-359 63z" />
    <glyph glyph-name="questiondown" unicode="&#xbf;" horiz-adv-x="1593" 
d="M872 1544q-103 0 -176 70t-73 172q0 100 74 173t175 73q95 0 166.5 -73t71.5 -173q0 -102 -71 -172t-167 -70zM1233 774q-5 -170 -78.5 -280.5t-257.5 -300.5q-101 -109 -192.5 -209t-134 -182.5t-42.5 -186.5q0 -150 113 -243t264 -93q80 0 182 52t162 132l25 -200
q-230 -127 -410 -127q-175 0 -313 70t-215 191.5t-78 266.5q0 120 32.5 221t85.5 180.5t115 148.5t140 155q208 227 264 299t72 172q0 136 -59 211t-163 75q-54 0 -122 -20l-25 12l49 123q82 16 123 16q185 0 324 -128.5t139 -354.5z" />
    <glyph glyph-name="Agrave" unicode="&#xc0;" horiz-adv-x="2736" 
d="M66 -16l1277 2871h99l1229 -2871q-50 0 -238 16q-32 -4 -95 -8t-97 -8q-186 550 -435 1114h-1036q-92 -233 -167 -423t-137.5 -363.5t-105.5 -327.5q-24 4 -74 8t-77 8q-24 -3 -74 -7.5t-69 -8.5zM848 1266h897l-459 1044zM1610 3023q-333 199 -647 402q-99 70 -107 102
q0 25 -4 41q5 143 176 143q29 -5 55.5 -26.5t38.5 -34.5q56 -56 215.5 -213t207 -204t208.5 -210h-143z" />
    <glyph glyph-name="Aacute" unicode="&#xc1;" horiz-adv-x="2736" 
d="M66 -16l1277 2871h99l1229 -2871q-50 0 -238 16q-32 -4 -95 -8t-97 -8q-186 550 -435 1114h-1036q-92 -233 -167 -423t-137.5 -363.5t-105.5 -327.5q-24 4 -74 8t-77 8q-24 -3 -74 -7.5t-69 -8.5zM848 1266h897l-459 1044zM983 3023l582 586q102 102 176 102
q66 0 102.5 -42.5t36.5 -108.5t-106 -135l-648 -402h-143z" />
    <glyph glyph-name="Acircumflex" unicode="&#xc2;" horiz-adv-x="2736" 
d="M66 -16l1277 2871h99l1229 -2871q-50 0 -238 16q-32 -4 -95 -8t-97 -8q-186 550 -435 1114h-1036q-92 -233 -167 -423t-137.5 -363.5t-105.5 -327.5q-24 4 -74 8t-77 8q-24 -3 -74 -7.5t-69 -8.5zM848 1266h897l-459 1044zM754 3023l503 680h222l503 -680h-135l-471 434
l-479 -434h-143z" />
    <glyph glyph-name="Atilde" unicode="&#xc3;" horiz-adv-x="2736" 
d="M66 -16l1277 2871h99l1229 -2871q-50 0 -238 16q-32 -4 -95 -8t-97 -8q-186 550 -435 1114h-1036q-92 -233 -167 -423t-137.5 -363.5t-105.5 -327.5q-24 4 -74 8t-77 8q-24 -3 -74 -7.5t-69 -8.5zM848 1266h897l-459 1044zM778 3121q100 396 422 406q64 0 135.5 -26.5
t164.5 -74.5t149 -70t112 -22q156 0 234 209h119q-21 -95 -71.5 -190t-143.5 -163.5t-224 -68.5q-73 0 -142.5 25t-158.5 72.5t-146.5 71.5t-113.5 24q-170 0 -225 -193h-111z" />
    <glyph glyph-name="Adieresis" unicode="&#xc4;" horiz-adv-x="2736" 
d="M66 -16l1277 2871h99l1229 -2871q-50 0 -238 16q-32 -4 -95 -8t-97 -8q-186 550 -435 1114h-1036q-92 -233 -167 -423t-137.5 -363.5t-105.5 -327.5q-24 4 -74 8t-77 8q-24 -3 -74 -7.5t-69 -8.5zM848 1266h897l-459 1044zM959 3482q80 0 132 -53t52 -132
q0 -81 -53 -136.5t-131 -55.5q-77 0 -135 57t-58 135q0 76 57 130.5t136 54.5zM1761 3482q79 0 136 -53.5t57 -131.5q0 -80 -58 -136t-135 -56q-78 0 -131 56.5t-53 135.5q0 77 52 131t132 54z" />
    <glyph glyph-name="Aring" unicode="&#xc5;" horiz-adv-x="2736" 
d="M66 -16l1277 2871h99l1229 -2871q-50 0 -238 16q-32 -4 -95 -8t-97 -8q-186 550 -435 1114h-1036q-92 -233 -167 -423t-137.5 -363.5t-105.5 -327.5q-24 4 -74 8t-77 8q-24 -3 -74 -7.5t-69 -8.5zM848 1266h897l-459 1044zM975 3384q0 96 51.5 192.5t144.5 156.5t209 60
q139 0 231.5 -68.5t135.5 -163t43 -177.5q0 -97 -51.5 -191t-145.5 -152.5t-213 -58.5q-114 0 -207 59t-145.5 153t-52.5 190zM1135 3384q0 -98 77.5 -172t167.5 -74q98 0 178 69.5t80 176.5q0 105 -79 181.5t-179 76.5q-89 0 -167 -73.5t-78 -184.5z" />
    <glyph glyph-name="AE" unicode="&#xc6;" horiz-adv-x="3408" 
d="M25 -16q460 704 941 1440t906 1369h1368q-4 -23 -8 -68t-8 -71q4 -15 8 -52.5t8 -57.5q-250 57 -1008 57v-1040h471q70 0 145 4t136.5 9.5t128.5 10.5q-3 -17 -7.5 -52.5t-8.5 -53.5q4 -19 8 -57.5t8 -61.5q-85 5 -153.5 11t-132.5 9.5t-115 3.5h-480v-1191
q303 0 551.5 9.5t481.5 47.5q-6 -35 -9.5 -71.5t-7.5 -59.5q4 -17 7.5 -48t9.5 -71h-1393v1024h-950q-90 -143 -205 -342.5t-203.5 -366t-169.5 -331.5q-29 4 -80 8.5t-80 7.5q-22 -4 -76 -8.5t-83 -7.5zM1872 1192v1302q-4 -4 -22.5 -8t-18.5 -8q-70 -110 -203 -318.5
t-217 -339t-167 -260t-236 -368.5h864z" />
    <glyph glyph-name="Ccedilla" unicode="&#xc7;" horiz-adv-x="2736" 
d="M160 1409q0 320 109.5 587.5t314 460t490 295.5t630.5 103q440 0 881 -193q-47 -97 -91 -311l-28 -8q-101 113 -231 192t-270.5 119.5t-276.5 40.5q-251 0 -459 -91t-357.5 -263t-230 -416t-80.5 -541q0 -421 157 -712.5t408 -434.5t529 -143q229 0 460.5 93.5
t411.5 242.5l-24 -262q-403 -234 -901 -234q-329 0 -595 99t-456 290.5t-290.5 466.5t-100.5 619zM1425 0h136l-119 -270q21 3 68.5 9.5t66.5 10.5q155 -6 241.5 -87.5t86.5 -190.5q0 -155 -127.5 -249.5t-401.5 -94.5q-150 0 -303 65l57 119q13 -3 69 -17.5t101 -23
t76 -8.5q105 0 173.5 40.5t68.5 127.5q0 153 -193 168q-73 -16 -110 -25l-74 16z" />
    <glyph glyph-name="Egrave" unicode="&#xc8;" horiz-adv-x="2048" 
d="M369 0v2793h1454q-3 -24 -7.5 -68t-9.5 -71q5 -15 9.5 -52.5t7.5 -57.5q-268 57 -733 57h-361v-1032h639q28 0 96.5 4t121.5 8.5t143 11.5q-6 -30 -9.5 -61.5t-7.5 -52.5q4 -15 7 -42.5t10 -68.5q-274 18 -361 25h-639v-1200q45 0 94 -9q106 4 246.5 9t295 13t277.5 18.5
t205 25.5q-3 -19 -7 -55t-9 -60q4 -18 9 -69t7 -66h-1478zM1266 3023q-333 199 -647 402q-99 70 -107 102q0 25 -4 41q5 143 176 143q29 -5 55.5 -26.5t38.5 -34.5q56 -56 215.5 -213t207 -204t208.5 -210h-143z" />
    <glyph glyph-name="Eacute" unicode="&#xc9;" horiz-adv-x="2048" 
d="M369 0v2793h1454q-3 -24 -7.5 -68t-9.5 -71q5 -15 9.5 -52.5t7.5 -57.5q-268 57 -733 57h-361v-1032h639q28 0 96.5 4t121.5 8.5t143 11.5q-6 -30 -9.5 -61.5t-7.5 -52.5q4 -15 7 -42.5t10 -68.5q-274 18 -361 25h-639v-1200q45 0 94 -9q106 4 246.5 9t295 13t277.5 18.5
t205 25.5q-3 -19 -7 -55t-9 -60q4 -18 9 -69t7 -66h-1478zM729 3023l582 586q102 102 176 102q66 0 102.5 -42.5t36.5 -108.5t-106 -135l-648 -402h-143z" />
    <glyph glyph-name="Ecircumflex" unicode="&#xca;" horiz-adv-x="2048" 
d="M369 0v2793h1454q-3 -24 -7.5 -68t-9.5 -71q5 -15 9.5 -52.5t7.5 -57.5q-268 57 -733 57h-361v-1032h639q28 0 96.5 4t121.5 8.5t143 11.5q-6 -30 -9.5 -61.5t-7.5 -52.5q4 -15 7 -42.5t10 -68.5q-274 18 -361 25h-639v-1200q45 0 94 -9q106 4 246.5 9t295 13t277.5 18.5
t205 25.5q-3 -19 -7 -55t-9 -60q4 -18 9 -69t7 -66h-1478zM492 3023l503 680h222l503 -680h-135l-471 434l-479 -434h-143z" />
    <glyph glyph-name="Edieresis" unicode="&#xcb;" horiz-adv-x="2048" 
d="M369 0v2793h1454q-3 -24 -7.5 -68t-9.5 -71q5 -15 9.5 -52.5t7.5 -57.5q-268 57 -733 57h-361v-1032h639q28 0 96.5 4t121.5 8.5t143 11.5q-6 -30 -9.5 -61.5t-7.5 -52.5q4 -15 7 -42.5t10 -68.5q-274 18 -361 25h-639v-1200q45 0 94 -9q106 4 246.5 9t295 13t277.5 18.5
t205 25.5q-3 -19 -7 -55t-9 -60q4 -18 9 -69t7 -66h-1478zM705 3482q80 0 132 -53t52 -132q0 -81 -53 -136.5t-131 -55.5q-77 0 -135 57t-58 135q0 76 57 130.5t136 54.5zM1507 3482q79 0 136 -53.5t57 -131.5q0 -80 -58 -136t-135 -56q-78 0 -131 56.5t-53 135.5
q0 77 52 131t132 54z" />
    <glyph glyph-name="Igrave" unicode="&#xcc;" horiz-adv-x="1135" 
d="M393 2793q25 -4 81.5 -8t86.5 -8q31 4 96 8t97 8v-2809q-26 4 -90 8t-95 8q-30 -4 -90.5 -8t-85.5 -8v2809zM807 3023q-333 199 -647 402q-99 70 -107 102q0 25 -4 41q5 143 176 143q29 -5 55.5 -26.5t38.5 -34.5q56 -56 215.5 -213t207 -204t208.5 -210h-143z" />
    <glyph glyph-name="Iacute" unicode="&#xcd;" horiz-adv-x="1135" 
d="M393 2793q25 -4 81.5 -8t86.5 -8q31 4 96 8t97 8v-2809q-26 4 -90 8t-95 8q-30 -4 -90.5 -8t-85.5 -8v2809zM192 3023l582 586q102 102 176 102q66 0 102.5 -42.5t36.5 -108.5t-106 -135l-648 -402h-143z" />
    <glyph glyph-name="Icircumflex" unicode="&#xce;" horiz-adv-x="1135" 
d="M393 2793q25 -4 81.5 -8t86.5 -8q31 4 96 8t97 8v-2809q-26 4 -90 8t-95 8q-30 -4 -90.5 -8t-85.5 -8v2809zM-127 3023l503 680h222l503 -680h-135l-471 434l-479 -434h-143z" />
    <glyph glyph-name="Idieresis" unicode="&#xcf;" horiz-adv-x="1135" 
d="M393 2793q25 -4 81.5 -8t86.5 -8q31 4 96 8t97 8v-2809q-26 4 -90 8t-95 8q-30 -4 -90.5 -8t-85.5 -8v2809zM168 3482q80 0 132 -53t52 -132q0 -81 -53 -136.5t-131 -55.5q-77 0 -135 57t-58 135q0 76 57 130.5t136 54.5zM970 3482q79 0 136 -53.5t57 -131.5
q0 -80 -58 -136t-135 -56q-78 0 -131 56.5t-53 135.5q0 77 52 131t132 54z" />
    <glyph glyph-name="Eth" unicode="&#xd0;" horiz-adv-x="3183" 
d="M897 2626v-1041h623v-184h-623v-1217q123 -8 422 -24q123 11 235.5 20.5t213 30.5t198.5 68q212 108 344.5 286t192.5 401t65 488q0 606 -258 889q-262 299 -901 299q-160 0 -512 -16zM537 0v1401h-328v184h328v1208h958q268 0 421 -12t307 -65.5t304 -171.5
q136 -108 234 -268.5t149 -358t51 -406.5q0 -750 -520 -1208q-362 -303 -1057 -303h-847z" />
    <glyph glyph-name="Ntilde" unicode="&#xd1;" horiz-adv-x="3183" 
d="M410 -16v2809h159q323 -351 745 -809t596.5 -647t608.5 -657h41v2113q20 -4 58 -8t53 -8q21 4 61 8t61 8v-2809h-131q-189 219 -444.5 507t-482 539.5t-475 526.5t-580.5 643h-41v-2216q-21 4 -63 8t-64 8q-17 -3 -52 -7.5t-50 -8.5zM929 3121q100 396 422 406
q64 0 135.5 -26.5t164.5 -74.5t149 -70t112 -22q156 0 234 209h119q-21 -95 -71.5 -190t-143.5 -163.5t-224 -68.5q-73 0 -142.5 25t-158.5 72.5t-146.5 71.5t-113.5 24q-170 0 -225 -193h-111z" />
    <glyph glyph-name="Ograve" unicode="&#xd2;" horiz-adv-x="3408" 
d="M176 1384q0 383 178 723t515.5 544t785.5 204h33q399 -9 695 -127t485.5 -314t280.5 -443.5t91 -520.5q0 -353 -118 -635t-332.5 -480.5t-495.5 -299.5t-598 -101h-17q-387 5 -724 150t-552.5 469t-226.5 831zM578 1368q0 -409 141 -699t395 -439.5t590 -155.5
q294 0 550.5 159t413 451.5t171.5 667.5q0 19 2 53t2 53q0 392 -139 672t-392 429t-583 161q-384 0 -643.5 -189t-383.5 -498t-124 -665zM1864 3023q-333 199 -647 402q-99 70 -107 102q0 25 -4 41q5 143 176 143q29 -5 55.5 -26.5t38.5 -34.5q56 -56 215.5 -213t207 -204
t208.5 -210h-143z" />
    <glyph glyph-name="Oacute" unicode="&#xd3;" horiz-adv-x="3408" 
d="M176 1384q0 383 178 723t515.5 544t785.5 204h33q399 -9 695 -127t485.5 -314t280.5 -443.5t91 -520.5q0 -353 -118 -635t-332.5 -480.5t-495.5 -299.5t-598 -101h-17q-387 5 -724 150t-552.5 469t-226.5 831zM578 1368q0 -409 141 -699t395 -439.5t590 -155.5
q294 0 550.5 159t413 451.5t171.5 667.5q0 19 2 53t2 53q0 392 -139 672t-392 429t-583 161q-384 0 -643.5 -189t-383.5 -498t-124 -665zM1409 3023l582 586q102 102 176 102q66 0 102.5 -42.5t36.5 -108.5t-106 -135l-648 -402h-143z" />
    <glyph glyph-name="Ocircumflex" unicode="&#xd4;" horiz-adv-x="3408" 
d="M176 1384q0 383 178 723t515.5 544t785.5 204h33q399 -9 695 -127t485.5 -314t280.5 -443.5t91 -520.5q0 -353 -118 -635t-332.5 -480.5t-495.5 -299.5t-598 -101h-17q-387 5 -724 150t-552.5 469t-226.5 831zM578 1368q0 -409 141 -699t395 -439.5t590 -155.5
q294 0 550.5 159t413 451.5t171.5 667.5q0 19 2 53t2 53q0 392 -139 672t-392 429t-583 161q-384 0 -643.5 -189t-383.5 -498t-124 -665zM1090 3023l503 680h222l503 -680h-135l-471 434l-479 -434h-143z" />
    <glyph glyph-name="Otilde" unicode="&#xd5;" horiz-adv-x="3408" 
d="M176 1384q0 383 178 723t515.5 544t785.5 204h33q399 -9 695 -127t485.5 -314t280.5 -443.5t91 -520.5q0 -353 -118 -635t-332.5 -480.5t-495.5 -299.5t-598 -101h-17q-387 5 -724 150t-552.5 469t-226.5 831zM578 1368q0 -409 141 -699t395 -439.5t590 -155.5
q294 0 550.5 159t413 451.5t171.5 667.5q0 19 2 53t2 53q0 392 -139 672t-392 429t-583 161q-384 0 -643.5 -189t-383.5 -498t-124 -665zM1040 3121q100 396 422 406q64 0 135.5 -26.5t164.5 -74.5t149 -70t112 -22q156 0 234 209h119q-21 -95 -71.5 -190t-143.5 -163.5
t-224 -68.5q-73 0 -142.5 25t-158.5 72.5t-146.5 71.5t-113.5 24q-170 0 -225 -193h-111z" />
    <glyph glyph-name="Odieresis" unicode="&#xd6;" horiz-adv-x="3408" 
d="M176 1384q0 383 178 723t515.5 544t785.5 204h33q399 -9 695 -127t485.5 -314t280.5 -443.5t91 -520.5q0 -353 -118 -635t-332.5 -480.5t-495.5 -299.5t-598 -101h-17q-387 5 -724 150t-552.5 469t-226.5 831zM578 1368q0 -409 141 -699t395 -439.5t590 -155.5
q294 0 550.5 159t413 451.5t171.5 667.5q0 19 2 53t2 53q0 392 -139 672t-392 429t-583 161q-384 0 -643.5 -189t-383.5 -498t-124 -665zM1303 3482q80 0 132 -53t52 -132q0 -81 -53 -136.5t-131 -55.5q-77 0 -135 57t-58 135q0 76 57 130.5t136 54.5zM2105 3482
q79 0 136 -53.5t57 -131.5q0 -80 -58 -136t-135 -56q-78 0 -131 56.5t-53 135.5q0 77 52 131t132 54z" />
    <glyph glyph-name="Oslash" unicode="&#xd8;" horiz-adv-x="3408" 
d="M168 1327q0 308 105.5 585.5t305.5 489.5t486 332.5t631 120.5q274 0 538 -75t453 -228q277 317 360 426q15 -34 60 -67t51 -40l-373 -393q126 -124 217 -242.5t164.5 -329t73.5 -497.5q-16 -468 -230.5 -801t-577 -503.5t-810.5 -170.5q-223 9 -470 83.5t-423 207.5
q-228 -255 -360 -434q-17 20 -33.5 39.5t-35.5 36t-42 22.5q55 55 188.5 203t184.5 203q-185 161 -315 419t-148 613zM2527 2384q-150 176 -368.5 256t-421.5 80q-282 -3 -496.5 -102.5t-359 -281.5t-220 -431.5t-83.5 -552.5q0 -263 63 -490t174 -358zM2744 872
q95 315 95 598q0 482 -238 820l-1712 -1872q166 -169 378 -257.5t429 -94.5q228 5 434.5 97t367.5 272.5t246 436.5z" />
    <glyph glyph-name="Ugrave" unicode="&#xd9;" horiz-adv-x="3183" 
d="M385 1073v1720q30 -4 82 -8t78 -8q138 16 200 16v-1720q0 -234 66.5 -441.5t267.5 -356t568 -148.5q258 0 432.5 92t274.5 244.5t140.5 331t40.5 372.5v1626q14 -2 55 -7t56 -9q23 4 62.5 8.5t60.5 7.5v-1675q0 -377 -143.5 -644t-415 -403.5t-649.5 -136.5
q-437 0 -698 148.5t-369.5 401.5t-108.5 589zM1831 3023q-333 199 -647 402q-99 70 -107 102q0 25 -4 41q5 143 176 143q29 -5 55.5 -26.5t38.5 -34.5q56 -56 215.5 -213t207 -204t208.5 -210h-143z" />
    <glyph glyph-name="Uacute" unicode="&#xda;" horiz-adv-x="3183" 
d="M385 1073v1720q30 -4 82 -8t78 -8q138 16 200 16v-1720q0 -234 66.5 -441.5t267.5 -356t568 -148.5q258 0 432.5 92t274.5 244.5t140.5 331t40.5 372.5v1626q14 -2 55 -7t56 -9q23 4 62.5 8.5t60.5 7.5v-1675q0 -377 -143.5 -644t-415 -403.5t-649.5 -136.5
q-437 0 -698 148.5t-369.5 401.5t-108.5 589zM1216 3023l582 586q102 102 176 102q66 0 102.5 -42.5t36.5 -108.5t-106 -135l-648 -402h-143z" />
    <glyph glyph-name="Ucircumflex" unicode="&#xdb;" horiz-adv-x="3183" 
d="M385 1073v1720q30 -4 82 -8t78 -8q138 16 200 16v-1720q0 -234 66.5 -441.5t267.5 -356t568 -148.5q258 0 432.5 92t274.5 244.5t140.5 331t40.5 372.5v1626q14 -2 55 -7t56 -9q23 4 62.5 8.5t60.5 7.5v-1675q0 -377 -143.5 -644t-415 -403.5t-649.5 -136.5
q-437 0 -698 148.5t-369.5 401.5t-108.5 589zM979 3023l503 680h222l503 -680h-135l-471 434l-479 -434h-143z" />
    <glyph glyph-name="Udieresis" unicode="&#xdc;" horiz-adv-x="3183" 
d="M385 1073v1720q30 -4 82 -8t78 -8q138 16 200 16v-1720q0 -234 66.5 -441.5t267.5 -356t568 -148.5q258 0 432.5 92t274.5 244.5t140.5 331t40.5 372.5v1626q14 -2 55 -7t56 -9q23 4 62.5 8.5t60.5 7.5v-1675q0 -377 -143.5 -644t-415 -403.5t-649.5 -136.5
q-437 0 -698 148.5t-369.5 401.5t-108.5 589zM1192 3482q80 0 132 -53t52 -132q0 -81 -53 -136.5t-131 -55.5q-77 0 -135 57t-58 135q0 76 57 130.5t136 54.5zM1994 3482q79 0 136 -53.5t57 -131.5q0 -80 -58 -136t-135 -56q-78 0 -131 56.5t-53 135.5q0 77 52 131t132 54z
" />
    <glyph glyph-name="Yacute" unicode="&#xdd;" horiz-adv-x="2503" 
d="M1090 1167l-1008 1626q43 -3 121.5 -7.5t115.5 -8.5q39 4 108 8t110 8q353 -660 774 -1376q139 203 270 426.5t244.5 436.5t271.5 513q28 -4 81.5 -8t78.5 -8q28 4 80.5 8.5t79.5 7.5q-86 -108 -228 -321.5t-314.5 -490.5t-289 -477.5t-135.5 -254.5v-1265
q-33 3 -98.5 7.5t-94.5 8.5q-29 -4 -83.5 -8t-83.5 -8v1183zM954 3023l582 586q102 102 176 102q66 0 102.5 -42.5t36.5 -108.5t-106 -135l-648 -402h-143z" />
    <glyph glyph-name="Thorn" unicode="&#xde;" 
d="M1098 1090q291 13 465 138.5t174 401.5q-3 176 -81 276t-199.5 138t-302 44.5t-273.5 8.5h-66q-19 0 -58 -4t-69 -4v-999q58 -6 108.5 -9.5t84.5 -7.5q35 4 91.5 7.5t125.5 9.5zM1200 942q-143 0 -209 -4q-119 4 -303 4v-958q-37 4 -101 8t-100 8q-29 -4 -83.5 -8
t-84.5 -8v2809q28 -4 84 -8t84 -8q36 4 100 8t101 8v-569h393q321 -16 443.5 -27.5t267.5 -62.5t236 -170t94 -326q0 -267 -127 -413t-319.5 -201.5t-475.5 -81.5z" />
    <glyph glyph-name="germandbls" unicode="&#xdf;" 
d="M287 -16v2023q0 462 184 754q101 152 271 227.5t356 75.5q219 0 357 -81t197.5 -192t59.5 -198q0 -125 -57.5 -222t-174.5 -220t-176 -207.5t-71 -198.5q11 -133 109.5 -226.5t281 -203t248.5 -172.5q217 -188 217 -406q0 -202 -118.5 -382.5t-308.5 -288t-388 -107.5
q-194 0 -385 98l86 230q144 -161 393 -176q191 0 319 128t128 306q0 183 -110 296t-324.5 238t-322 226.5t-116.5 271.5q9 136 76 235t200 242t201 257t68 265q-7 137 -104.5 250.5t-292.5 118.5q-291 0 -383.5 -248.5t-92.5 -599.5v-2113q-29 4 -84 8t-84 8q-23 -4 -76 -8
t-83 -8z" />
    <glyph glyph-name="agrave" unicode="&#xe0;" horiz-adv-x="2048" 
d="M193 446q0 246 115 371.5t405 181.5q52 14 201 30.5t242 39t160.5 83t67.5 175.5q0 204 -137.5 337.5t-341.5 133.5q-158 0 -297 -74.5t-190 -203.5h-49v225q327 221 663 221q309 0 486.5 -159.5t177.5 -503.5v-984q0 -32 -8 -57q12 -72 29.5 -95t80.5 -48q26 4 68 14
t55 10v-86q-146 -57 -258 -57q-117 0 -195.5 64t-91.5 186q-263 -299 -622 -299q-155 0 -283.5 63.5t-203 178t-74.5 253.5zM1368 410v598q-114 -19 -268.5 -46.5t-278.5 -75t-207.5 -138t-93.5 -236.5q3 -21 7 -57t10 -70q24 -108 123 -184t229 -82q271 14 479 291z
M1184 2175q-333 199 -647 402q-99 70 -107 102q0 25 -4 41q5 143 176 143q29 -5 55.5 -26.5t38.5 -34.5q56 -56 215.5 -213t207 -204t208.5 -210h-143z" />
    <glyph glyph-name="aacute" unicode="&#xe1;" horiz-adv-x="2048" 
d="M193 446q0 246 115 371.5t405 181.5q52 14 201 30.5t242 39t160.5 83t67.5 175.5q0 204 -137.5 337.5t-341.5 133.5q-158 0 -297 -74.5t-190 -203.5h-49v225q327 221 663 221q309 0 486.5 -159.5t177.5 -503.5v-984q0 -32 -8 -57q12 -72 29.5 -95t80.5 -48q26 4 68 14
t55 10v-86q-146 -57 -258 -57q-117 0 -195.5 64t-91.5 186q-263 -299 -622 -299q-155 0 -283.5 63.5t-203 178t-74.5 253.5zM1368 410v598q-114 -19 -268.5 -46.5t-278.5 -75t-207.5 -138t-93.5 -236.5q3 -21 7 -57t10 -70q24 -108 123 -184t229 -82q271 14 479 291z
M561 2175l582 586q102 102 176 102q66 0 102.5 -42.5t36.5 -108.5t-106 -135l-648 -402h-143z" />
    <glyph glyph-name="acircumflex" unicode="&#xe2;" horiz-adv-x="2048" 
d="M193 446q0 246 115 371.5t405 181.5q52 14 201 30.5t242 39t160.5 83t67.5 175.5q0 204 -137.5 337.5t-341.5 133.5q-158 0 -297 -74.5t-190 -203.5h-49v225q327 221 663 221q309 0 486.5 -159.5t177.5 -503.5v-984q0 -32 -8 -57q12 -72 29.5 -95t80.5 -48q26 4 68 14
t55 10v-86q-146 -57 -258 -57q-117 0 -195.5 64t-91.5 186q-263 -299 -622 -299q-155 0 -283.5 63.5t-203 178t-74.5 253.5zM1368 410v598q-114 -19 -268.5 -46.5t-278.5 -75t-207.5 -138t-93.5 -236.5q3 -21 7 -57t10 -70q24 -108 123 -184t229 -82q271 14 479 291z
M328 2183l503 680h222l503 -680h-135l-471 434l-479 -434h-143z" />
    <glyph glyph-name="atilde" unicode="&#xe3;" horiz-adv-x="2048" 
d="M193 446q0 246 115 371.5t405 181.5q52 14 201 30.5t242 39t160.5 83t67.5 175.5q0 204 -137.5 337.5t-341.5 133.5q-158 0 -297 -74.5t-190 -203.5h-49v225q327 221 663 221q309 0 486.5 -159.5t177.5 -503.5v-984q0 -32 -8 -57q12 -72 29.5 -95t80.5 -48q26 4 68 14
t55 10v-86q-146 -57 -258 -57q-117 0 -195.5 64t-91.5 186q-263 -299 -622 -299q-155 0 -283.5 63.5t-203 178t-74.5 253.5zM1368 410v598q-114 -19 -268.5 -46.5t-278.5 -75t-207.5 -138t-93.5 -236.5q3 -21 7 -57t10 -70q24 -108 123 -184t229 -82q271 14 479 291z
M360 2281q100 396 422 406q64 0 135.5 -26.5t164.5 -74.5t149 -70t112 -22q156 0 234 209h119q-21 -95 -71.5 -190t-143.5 -163.5t-224 -68.5q-73 0 -142.5 25t-158.5 72.5t-146.5 71.5t-113.5 24q-170 0 -225 -193h-111z" />
    <glyph glyph-name="adieresis" unicode="&#xe4;" horiz-adv-x="2048" 
d="M193 446q0 246 115 371.5t405 181.5q52 14 201 30.5t242 39t160.5 83t67.5 175.5q0 204 -137.5 337.5t-341.5 133.5q-158 0 -297 -74.5t-190 -203.5h-49v225q327 221 663 221q309 0 486.5 -159.5t177.5 -503.5v-984q0 -32 -8 -57q12 -72 29.5 -95t80.5 -48q26 4 68 14
t55 10v-86q-146 -57 -258 -57q-117 0 -195.5 64t-91.5 186q-263 -299 -622 -299q-155 0 -283.5 63.5t-203 178t-74.5 253.5zM1368 410v598q-114 -19 -268.5 -46.5t-278.5 -75t-207.5 -138t-93.5 -236.5q3 -21 7 -57t10 -70q24 -108 123 -184t229 -82q271 14 479 291z
M623 2634q80 0 132 -53t52 -132q0 -81 -53 -136.5t-131 -55.5q-77 0 -135 57t-58 135q0 76 57 130.5t136 54.5zM1425 2634q79 0 136 -53.5t57 -131.5q0 -80 -58 -136t-135 -56q-78 0 -131 56.5t-53 135.5q0 77 52 131t132 54z" />
    <glyph glyph-name="aring" unicode="&#xe5;" horiz-adv-x="2048" 
d="M193 446q0 246 115 371.5t405 181.5q52 14 201 30.5t242 39t160.5 83t67.5 175.5q0 204 -137.5 337.5t-341.5 133.5q-158 0 -297 -74.5t-190 -203.5h-49v225q327 221 663 221q309 0 486.5 -159.5t177.5 -503.5v-984q0 -32 -8 -57q12 -72 29.5 -95t80.5 -48q26 4 68 14
t55 10v-86q-146 -57 -258 -57q-117 0 -195.5 64t-91.5 186q-263 -299 -622 -299q-155 0 -283.5 63.5t-203 178t-74.5 253.5zM1368 410v598q-114 -19 -268.5 -46.5t-278.5 -75t-207.5 -138t-93.5 -236.5q3 -21 7 -57t10 -70q24 -108 123 -184t229 -82q271 14 479 291z
M639 2544q0 96 51.5 192.5t144.5 156.5t209 60q139 0 231.5 -68.5t135.5 -163t43 -177.5q0 -97 -51.5 -191t-145.5 -152.5t-213 -58.5q-114 0 -207 59t-145.5 153t-52.5 190zM799 2544q0 -98 77.5 -172t167.5 -74q98 0 178 69.5t80 176.5q0 105 -79 181.5t-179 76.5
q-89 0 -167 -73.5t-78 -184.5z" />
    <glyph glyph-name="ae" unicode="&#xe6;" horiz-adv-x="3183" 
d="M135 487q5 211 105.5 309.5t279.5 161.5q94 34 298 62.5t317.5 57t191.5 106.5q0 21 4 61t4 58q0 495 -487 495q-97 0 -195 -36.5t-176.5 -103t-116.5 -147.5h-41v218q133 137 318 191t330 54q182 0 351 -79t267 -240q229 311 639 311q211 0 369 -70.5t257 -193t146 -282
t47 -339.5q0 -77 -4 -114q-254 8 -712 8h-689q0 -368 179.5 -608t525.5 -240q380 0 618 258l-24 -209q-332 -225 -664 -225q-343 0 -545 141t-303 338q-84 -222 -276.5 -350.5t-419.5 -128.5q-265 6 -429.5 138t-164.5 398zM1327 999q-173 -30 -378.5 -69t-338 -136.5
t-139.5 -297.5q4 -21 8 -67.5t8 -68.5q19 -99 129 -167t240 -74q84 9 176 41q181 74 238 205.5t57 425.5v208zM2720 1126q4 33 4 95q0 161 -62 306t-177.5 232.5t-268.5 87.5q-250 0 -396 -206t-165 -515h1065z" />
    <glyph glyph-name="ccedilla" unicode="&#xe7;" horiz-adv-x="2048" 
d="M168 967q0 284 121.5 511.5t363.5 357.5t588 130q203 0 345 -39t294 -121l-94 -270h-33q-184 295 -520 295q-227 0 -387 -117t-239 -309.5t-79 -413.5q0 -258 91.5 -463t264 -319.5t398.5 -114.5q161 0 283.5 65.5t273.5 200.5l25 -8l-17 -192q-303 -209 -630 -209
q-237 0 -433.5 72.5t-334.5 209t-209.5 322.5t-71.5 412zM999 0h136l-119 -270q21 3 68.5 9.5t66.5 10.5q155 -6 241.5 -87.5t86.5 -190.5q0 -155 -127.5 -249.5t-401.5 -94.5q-150 0 -303 65l57 119q13 -3 69 -17.5t101 -23t76 -8.5q105 0 173.5 40.5t68.5 127.5
q0 153 -193 168q-73 -16 -110 -25l-74 16z" />
    <glyph glyph-name="egrave" unicode="&#xe8;" horiz-adv-x="2048" 
d="M135 958q9 336 136 562.5t338 336t472 109.5q242 -4 407.5 -94t259 -230.5t131.5 -293t38 -299.5q0 -15 -2 -43t-2 -39q-283 6 -497.5 7t-919.5 1q-4 -33 -4 -90q0 -207 84 -380.5t248.5 -275.5t392.5 -102q285 0 598 283l-9 -209q-145 -108 -326 -179t-370 -71
q-321 0 -542.5 142t-327 372.5t-105.5 492.5zM1593 1126q0 187 -43 347t-157 265t-312 109q-282 0 -422.5 -220.5t-162.5 -500.5h1097zM1266 2175q-333 199 -647 402q-99 70 -107 102q0 25 -4 41q5 143 176 143q29 -5 55.5 -26.5t38.5 -34.5q56 -56 215.5 -213t207 -204
t208.5 -210h-143z" />
    <glyph glyph-name="eacute" unicode="&#xe9;" horiz-adv-x="2048" 
d="M135 958q9 336 136 562.5t338 336t472 109.5q242 -4 407.5 -94t259 -230.5t131.5 -293t38 -299.5q0 -15 -2 -43t-2 -39q-283 6 -497.5 7t-919.5 1q-4 -33 -4 -90q0 -207 84 -380.5t248.5 -275.5t392.5 -102q285 0 598 283l-9 -209q-145 -108 -326 -179t-370 -71
q-321 0 -542.5 142t-327 372.5t-105.5 492.5zM1593 1126q0 187 -43 347t-157 265t-312 109q-282 0 -422.5 -220.5t-162.5 -500.5h1097zM729 2175l582 586q102 102 176 102q66 0 102.5 -42.5t36.5 -108.5t-106 -135l-648 -402h-143z" />
    <glyph glyph-name="ecircumflex" unicode="&#xea;" horiz-adv-x="2048" 
d="M135 958q9 336 136 562.5t338 336t472 109.5q242 -4 407.5 -94t259 -230.5t131.5 -293t38 -299.5q0 -15 -2 -43t-2 -39q-283 6 -497.5 7t-919.5 1q-4 -33 -4 -90q0 -207 84 -380.5t248.5 -275.5t392.5 -102q285 0 598 283l-9 -209q-145 -108 -326 -179t-370 -71
q-321 0 -542.5 142t-327 372.5t-105.5 492.5zM1593 1126q0 187 -43 347t-157 265t-312 109q-282 0 -422.5 -220.5t-162.5 -500.5h1097zM492 2175l503 680h222l503 -680h-135l-471 434l-479 -434h-143z" />
    <glyph glyph-name="edieresis" unicode="&#xeb;" horiz-adv-x="2048" 
d="M135 958q9 336 136 562.5t338 336t472 109.5q242 -4 407.5 -94t259 -230.5t131.5 -293t38 -299.5q0 -15 -2 -43t-2 -39q-283 6 -497.5 7t-919.5 1q-4 -33 -4 -90q0 -207 84 -380.5t248.5 -275.5t392.5 -102q285 0 598 283l-9 -209q-145 -108 -326 -179t-370 -71
q-321 0 -542.5 142t-327 372.5t-105.5 492.5zM1593 1126q0 187 -43 347t-157 265t-312 109q-282 0 -422.5 -220.5t-162.5 -500.5h1097zM623 2634q80 0 132 -53t52 -132q0 -81 -53 -136.5t-131 -55.5q-77 0 -135 57t-58 135q0 76 57 130.5t136 54.5zM1425 2634
q79 0 136 -53.5t57 -131.5q0 -80 -58 -136t-135 -56q-78 0 -131 56.5t-53 135.5q0 77 52 131t132 54z" />
    <glyph glyph-name="igrave" unicode="&#xec;" horiz-adv-x="1135" 
d="M410 1946q56 0 143 -17q130 17 184 17v-1962q-33 4 -94 8t-90 8q-23 -4 -71 -8t-72 -8v1962zM807 2175q-333 199 -647 402q-99 70 -107 102q0 25 -4 41q5 143 176 143q29 -5 55.5 -26.5t38.5 -34.5q56 -56 215.5 -213t207 -204t208.5 -210h-143z" />
    <glyph glyph-name="iacute" unicode="&#xed;" horiz-adv-x="1135" 
d="M410 1946q56 0 143 -17q130 17 184 17v-1962q-33 4 -94 8t-90 8q-23 -4 -71 -8t-72 -8v1962zM192 2183l582 586q102 102 176 102q66 0 102.5 -42.5t36.5 -108.5t-106 -135l-648 -402h-143z" />
    <glyph glyph-name="icircumflex" unicode="&#xee;" horiz-adv-x="1135" 
d="M410 1946q56 0 143 -17q130 17 184 17v-1962q-33 4 -94 8t-90 8q-23 -4 -71 -8t-72 -8v1962zM-36 2183l503 680h222l503 -680h-135l-471 434l-479 -434h-143z" />
    <glyph glyph-name="idieresis" unicode="&#xef;" horiz-adv-x="1135" 
d="M410 1946q56 0 143 -17q130 17 184 17v-1962q-33 4 -94 8t-90 8q-23 -4 -71 -8t-72 -8v1962zM177 2642q80 0 132 -53t52 -132q0 -81 -53 -136.5t-131 -55.5q-77 0 -135 57t-58 135q0 76 57 130.5t136 54.5zM979 2642q79 0 136 -53.5t57 -131.5q0 -80 -58 -136t-135 -56
q-78 0 -131 56.5t-53 135.5q0 77 52 131t132 54z" />
    <glyph glyph-name="eth" unicode="&#xf0;" 
d="M1151 82q165 0 287 90.5t197 232t109 297.5t34 289q-5 209 -63.5 403t-191 323.5t-339.5 129.5q-247 0 -400 -134.5t-216.5 -344t-63.5 -446.5q0 -347 160 -593.5t487 -246.5zM1720 3064l74 -111l-393 -250q153 -151 285.5 -335t233 -394t157.5 -443.5t57 -481.5
q0 -264 -119 -517.5t-352 -417t-553 -163.5q-272 0 -493.5 128t-347.5 361.5t-126 534.5q0 290 136 516.5t375 350.5t530 124q256 0 434 -94q-136 374 -401 713l-426 -267l-70 115l397 254q-178 202 -344 303l66 74q200 -46 454 -262z" />
    <glyph glyph-name="ntilde" unicode="&#xf1;" 
d="M311 -16v1962q65 0 144 -17q138 17 184 17v-369q106 161 255 275t409 114q317 0 488 -169t171 -597v-1216q-29 4 -82 8t-82 8q-24 -4 -82 -8.5t-86 -7.5v1114q0 396 -121 529.5t-333 133.5q-294 0 -415.5 -202.5t-121.5 -550.5v-1024q-32 4 -92.5 8t-91.5 8
q-23 -4 -70.5 -8t-73.5 -8zM471 2281q100 396 422 406q64 0 135.5 -26.5t164.5 -74.5t149 -70t112 -22q156 0 234 209h119q-21 -95 -71.5 -190t-143.5 -163.5t-224 -68.5q-73 0 -142.5 25t-158.5 72.5t-146.5 71.5t-113.5 24q-170 0 -225 -193h-111z" />
    <glyph glyph-name="ograve" unicode="&#xf2;" 
d="M143 913q0 316 134.5 558t366 372.5t507.5 130.5q218 0 401 -75t312.5 -210.5t199 -318.5t70.5 -395q0 -173 -59.5 -352.5t-183 -331.5t-321 -246t-460.5 -94h-4q-283 4 -496 122t-334 335.5t-133 504.5zM504 922q0 -184 50.5 -371t190 -325t381.5 -144
q187 0 336.5 119.5t232.5 322.5t83 443q0 148 -32.5 299.5t-102 282t-184 213t-275.5 85.5q-231 0 -385 -127t-224.5 -337t-70.5 -461zM1385 2183q-333 199 -647 402q-99 70 -107 102q0 25 -4 41q5 143 176 143q29 -5 55.5 -26.5t38.5 -34.5q56 -56 215.5 -213t207 -204
t208.5 -210h-143z" />
    <glyph glyph-name="oacute" unicode="&#xf3;" 
d="M143 913q0 316 134.5 558t366 372.5t507.5 130.5q218 0 401 -75t312.5 -210.5t199 -318.5t70.5 -395q0 -173 -59.5 -352.5t-183 -331.5t-321 -246t-460.5 -94h-4q-283 4 -496 122t-334 335.5t-133 504.5zM504 922q0 -184 50.5 -371t190 -325t381.5 -144
q187 0 336.5 119.5t232.5 322.5t83 443q0 148 -32.5 299.5t-102 282t-184 213t-275.5 85.5q-231 0 -385 -127t-224.5 -337t-70.5 -461zM762 2183l582 586q102 102 176 102q66 0 102.5 -42.5t36.5 -108.5t-106 -135l-648 -402h-143z" />
    <glyph glyph-name="ocircumflex" unicode="&#xf4;" 
d="M143 913q0 316 134.5 558t366 372.5t507.5 130.5q218 0 401 -75t312.5 -210.5t199 -318.5t70.5 -395q0 -173 -59.5 -352.5t-183 -331.5t-321 -246t-460.5 -94h-4q-283 4 -496 122t-334 335.5t-133 504.5zM504 922q0 -184 50.5 -371t190 -325t381.5 -144
q187 0 336.5 119.5t232.5 322.5t83 443q0 148 -32.5 299.5t-102 282t-184 213t-275.5 85.5q-231 0 -385 -127t-224.5 -337t-70.5 -461zM492 2183l503 680h222l503 -680h-135l-471 434l-479 -434h-143z" />
    <glyph glyph-name="otilde" unicode="&#xf5;" 
d="M143 913q0 316 134.5 558t366 372.5t507.5 130.5q218 0 401 -75t312.5 -210.5t199 -318.5t70.5 -395q0 -173 -59.5 -352.5t-183 -331.5t-321 -246t-460.5 -94h-4q-283 4 -496 122t-334 335.5t-133 504.5zM504 922q0 -184 50.5 -371t190 -325t381.5 -144
q187 0 336.5 119.5t232.5 322.5t83 443q0 148 -32.5 299.5t-102 282t-184 213t-275.5 85.5q-231 0 -385 -127t-224.5 -337t-70.5 -461zM471 2281q100 396 422 406q64 0 135.5 -26.5t164.5 -74.5t149 -70t112 -22q156 0 234 209h119q-21 -95 -71.5 -190t-143.5 -163.5
t-224 -68.5q-73 0 -142.5 25t-158.5 72.5t-146.5 71.5t-113.5 24q-170 0 -225 -193h-111z" />
    <glyph glyph-name="odieresis" unicode="&#xf6;" 
d="M143 913q0 316 134.5 558t366 372.5t507.5 130.5q218 0 401 -75t312.5 -210.5t199 -318.5t70.5 -395q0 -173 -59.5 -352.5t-183 -331.5t-321 -246t-460.5 -94h-4q-283 4 -496 122t-334 335.5t-133 504.5zM504 922q0 -184 50.5 -371t190 -325t381.5 -144
q187 0 336.5 119.5t232.5 322.5t83 443q0 148 -32.5 299.5t-102 282t-184 213t-275.5 85.5q-231 0 -385 -127t-224.5 -337t-70.5 -461zM742 2642q80 0 132 -53t52 -132q0 -81 -53 -136.5t-131 -55.5q-77 0 -135 57t-58 135q0 76 57 130.5t136 54.5zM1544 2642
q79 0 136 -53.5t57 -131.5q0 -80 -58 -136t-135 -56q-78 0 -131 56.5t-53 135.5q0 77 52 131t132 54z" />
    <glyph glyph-name="oslash" unicode="&#xf8;" 
d="M385 262q-126 153 -185 308.5t-65 387.5q0 206 65.5 387.5t197 320.5t328 220t450.5 88q292 0 577 -180l295 348q29 -61 119 -102l-320 -328q124 -103 205.5 -296.5t81.5 -448.5q0 -233 -108.5 -466.5t-340.5 -389.5t-579 -160q-177 0 -353 69t-282 156l-295 -369
q-28 68 -110 119zM586 479l1007 1139q-46 104 -159 163.5t-258 65.5q-196 0 -348 -116.5t-238 -316.5t-94 -439q0 -289 90 -496zM1769 983q0 202 -35.5 340t-70.5 188l-1024 -1151q191 -278 496 -278q178 1 321.5 113t226 316.5t86.5 471.5z" />
    <glyph glyph-name="ugrave" unicode="&#xf9;" 
d="M279 680v1266q55 -7 91 -10t60 -7q31 4 77 7.5t99 9.5v-1155q0 -277 116 -458t388 -181q284 0 392 195t108 452v1147q47 0 151 -17q132 17 176 17v-1962q-29 3 -84 7.5t-84 8.5q-26 -4 -77.5 -8.5t-81.5 -7.5v352q-105 -188 -259.5 -280.5t-383.5 -104.5
q-416 0 -552 243.5t-136 485.5zM1303 2183q-333 199 -647 402q-99 70 -107 102q0 25 -4 41q5 143 176 143q29 -5 55.5 -26.5t38.5 -34.5q56 -56 215.5 -213t207 -204t208.5 -210h-143z" />
    <glyph glyph-name="uacute" unicode="&#xfa;" 
d="M279 680v1266q55 -7 91 -10t60 -7q31 4 77 7.5t99 9.5v-1155q0 -277 116 -458t388 -181q284 0 392 195t108 452v1147q47 0 151 -17q132 17 176 17v-1962q-29 3 -84 7.5t-84 8.5q-26 -4 -77.5 -8.5t-81.5 -7.5v352q-105 -188 -259.5 -280.5t-383.5 -104.5
q-416 0 -552 243.5t-136 485.5zM762 2183l582 586q102 102 176 102q66 0 102.5 -42.5t36.5 -108.5t-106 -135l-648 -402h-143z" />
    <glyph glyph-name="ucircumflex" unicode="&#xfb;" 
d="M279 680v1266q55 -7 91 -10t60 -7q31 4 77 7.5t99 9.5v-1155q0 -277 116 -458t388 -181q284 0 392 195t108 452v1147q47 0 151 -17q132 17 176 17v-1962q-29 3 -84 7.5t-84 8.5q-26 -4 -77.5 -8.5t-81.5 -7.5v352q-105 -188 -259.5 -280.5t-383.5 -104.5
q-416 0 -552 243.5t-136 485.5zM529 2183l503 680h222l503 -680h-135l-471 434l-479 -434h-143z" />
    <glyph glyph-name="udieresis" unicode="&#xfc;" 
d="M279 680v1266q55 -7 91 -10t60 -7q31 4 77 7.5t99 9.5v-1155q0 -277 116 -458t388 -181q284 0 392 195t108 452v1147q47 0 151 -17q132 17 176 17v-1962q-29 3 -84 7.5t-84 8.5q-26 -4 -77.5 -8.5t-81.5 -7.5v352q-105 -188 -259.5 -280.5t-383.5 -104.5
q-416 0 -552 243.5t-136 485.5zM742 2642q80 0 132 -53t52 -132q0 -81 -53 -136.5t-131 -55.5q-77 0 -135 57t-58 135q0 76 57 130.5t136 54.5zM1544 2642q79 0 136 -53.5t57 -131.5q0 -80 -58 -136t-135 -56q-78 0 -131 56.5t-53 135.5q0 77 52 131t132 54z" />
    <glyph glyph-name="yacute" unicode="&#xfd;" horiz-adv-x="2048" 
d="M102 1946q72 0 168 -17q174 17 226 17q106 -306 171.5 -482t128 -326.5t167 -386t143.5 -325.5q162 348 339 792t275 728q40 0 144 -17q87 17 118 17q-117 -265 -312.5 -699.5t-366.5 -819.5t-347.5 -795.5t-291.5 -696.5q-25 3 -74.5 7t-77.5 9q-17 -4 -60.5 -8.5
t-66.5 -7.5q455 890 553 1073zM729 2183l582 586q102 102 176 102q66 0 102.5 -42.5t36.5 -108.5t-106 -135l-648 -402h-143z" />
    <glyph glyph-name="thorn" unicode="&#xfe;" 
d="M270 -840v3633q28 -3 82.5 -7.5t77.5 -8.5q30 4 84 8t84 8v-1257h8q55 113 118.5 199.5t205 158.5t364.5 72q259 0 448.5 -125t288.5 -337.5t99 -463.5q0 -247 -64 -449t-183.5 -345t-283 -219t-358.5 -76q-419 0 -635 401h-8v-1192q-30 5 -89 9t-91 8q-24 -4 -73 -8
t-75 -9zM598 913q0 -350 151.5 -568t450.5 -218q200 0 325.5 116t180.5 314.5t55 450.5q0 355 -127 589t-434 234q-323 0 -462.5 -280.5t-139.5 -637.5z" />
    <glyph glyph-name="ydieresis" unicode="&#xff;" horiz-adv-x="2048" 
d="M102 1946q72 0 168 -17q174 17 226 17q106 -306 171.5 -482t128 -326.5t167 -386t143.5 -325.5q162 348 339 792t275 728q40 0 144 -17q87 17 118 17q-117 -265 -312.5 -699.5t-366.5 -819.5t-347.5 -795.5t-291.5 -696.5q-25 3 -74.5 7t-77.5 9q-17 -4 -60.5 -8.5
t-66.5 -7.5q455 890 553 1073zM631 2634q80 0 132 -53t52 -132q0 -81 -53 -136.5t-131 -55.5q-77 0 -135 57t-58 135q0 76 57 130.5t136 54.5zM1433 2634q79 0 136 -53.5t57 -131.5q0 -80 -58 -136t-135 -56q-78 0 -131 56.5t-53 135.5q0 77 52 131t132 54z" />
    <glyph glyph-name="dotlessi" unicode="&#x131;" horiz-adv-x="1135" 
d="M410 1946q56 0 143 -17q130 17 184 17v-1962q-33 4 -94 8t-90 8q-23 -4 -71 -8t-72 -8v1962z" />
    <glyph glyph-name="OE" unicode="&#x152;" horiz-adv-x="4096" 
d="M102 1352q0 360 112.5 640.5t318 473t475 289.5t585.5 100q308 0 595.5 -110t453.5 -320l-41 368h1335q0 -33 -16 -147q16 -58 16 -102q-165 38 -391 47.5t-584 9.5v-1032h496q102 0 223 8t191 8q-4 -18 -8 -51.5t-9 -54.5q5 -15 9.5 -53t7.5 -58q-66 0 -191 8t-223 8
h-496v-1191q340 0 575 9.5t466 47.5q-3 -23 -7.5 -69.5t-9.5 -69.5q5 -15 9.5 -53t7.5 -58h-1401l16 393q-112 -145 -282 -246t-374.5 -152.5t-416.5 -51.5q-272 0 -530 86.5t-464.5 261.5t-327 445t-120.5 616zM2642 1487q-11 428 -162.5 706t-380 402.5t-477.5 124.5
q-273 0 -483 -106t-351 -299t-211 -446t-73 -550q0 -301 87.5 -536.5t239.5 -393.5t343 -236.5t395 -78.5q364 4 606 202t354.5 518.5t112.5 692.5z" />
    <glyph glyph-name="oe" unicode="&#x153;" horiz-adv-x="3641" 
d="M119 930q0 205 68 392.5t198.5 331t321 227.5t428.5 85q299 0 492.5 -109t293.5 -247q151 194 334.5 275t415.5 81q270 0 455 -108.5t276.5 -307t91.5 -460.5q0 -82 -4 -123q-266 8 -836 8h-581q-8 -48 -25 -168q4 -191 98.5 -347t253 -244.5t344.5 -88.5q148 0 270 34.5
t216.5 91.5t177.5 132l-25 -201q-293 -221 -663 -233q-284 0 -494 101.5t-321 258.5q-113 -169 -321.5 -264.5t-457.5 -95.5q-399 0 -623.5 173t-300.5 391t-83 415zM479 938q0 -285 80 -474.5t223.5 -282.5t335.5 -99q211 0 356.5 133t217.5 331t77 392q0 228 -60.5 436
t-200 340.5t-357.5 132.5q-302 0 -480 -245.5t-192 -663.5zM3158 1126q0 721 -487 721q-268 -6 -414.5 -180.5t-183.5 -540.5h1085z" />
    <glyph glyph-name="florin" unicode="&#x192;" 
d="M578 1638h421q8 177 58.5 367t149 360t242.5 274.5t329 104.5q41 0 77 -24q-4 -37 -16 -103.5t-16 -105.5q16 -74 16 -119l-41 -16q-118 110 -246 110q-212 0 -225 -356q-5 -66 -33 -492h451q-13 -32 -25 -110q9 -17 9 -58h-443q-25 -199 -56.5 -539t-55 -541t-64.5 -390
q-100 -455 -302 -618.5t-480 -163.5q32 125 32 237v74q114 -57 226 -57q111 0 167.5 86t72.5 185.5t30 256.5q27 261 119 1470h-422q25 58 25 168z" />
    <glyph glyph-name="circumflex" unicode="&#x2c6;" horiz-adv-x="1360" 
d="M66 2183l503 680h222l503 -680h-135l-471 434l-479 -434h-143z" />
    <glyph glyph-name="breve" unicode="&#x2d8;" horiz-adv-x="1360" 
d="M225 2822q37 -223 165 -318.5t290 -95.5q383 0 455 414h122q-33 -354 -196 -493t-406 -146q-113 0 -239.5 55t-218 189t-95.5 350q9 25 9 45h114z" />
    <glyph glyph-name="ring" unicode="&#x2da;" horiz-adv-x="1360" 
d="M377 2544q0 96 51.5 192.5t144.5 156.5t209 60q139 0 231.5 -68.5t135.5 -163t43 -177.5q0 -97 -51.5 -191t-145.5 -152.5t-213 -58.5q-114 0 -207 59t-145.5 153t-52.5 190zM537 2544q0 -98 77.5 -172t167.5 -74q98 0 178 69.5t80 176.5q0 105 -79 181.5t-179 76.5
q-89 0 -167 -73.5t-78 -184.5z" />
    <glyph glyph-name="tilde" unicode="&#x2dc;" horiz-adv-x="1360" 
d="M16 2281q100 396 422 406q64 0 135.5 -26.5t164.5 -74.5t149 -70t112 -22q156 0 234 209h119q-21 -95 -71.5 -190t-143.5 -163.5t-224 -68.5q-73 0 -142.5 25t-158.5 72.5t-146.5 71.5t-113.5 24q-170 0 -225 -193h-111z" />
    <glyph glyph-name="emdash" unicode="&#x2013;" horiz-adv-x="2048" 
d="M2073 807h-2073v201h2073v-201z" />
    <glyph glyph-name="endash" unicode="&#x2014;" horiz-adv-x="4096" 
d="M0 807v201h4088h8v-201h-4088h-8z" />
    <glyph glyph-name="quoteleft" unicode="&#x2018;" horiz-adv-x="1135" 
d="M393 2089l463 766l74 -33l-283 -876q-35 -124 -73 -184t-128 -83q-58 0 -109.5 42t-57.5 118q8 25 8 57q11 26 51.5 95.5t54.5 97.5z" />
    <glyph glyph-name="quoteright" unicode="&#x2019;" horiz-adv-x="1135" 
d="M217 1712l279 905q46 133 84.5 182.5t107.5 55.5q67 0 117.5 -40t50.5 -112q0 -82 -86 -217l-491 -807z" />
    <glyph glyph-name="quotedblleft" unicode="&#x201c;" horiz-adv-x="1815" 
d="M913 2822l-290 -909q-31 -100 -71.5 -155t-125.5 -79q-61 0 -109.5 44.5t-54.5 107.5q45 149 98 217l480 807zM1610 2822l-291 -909q-31 -100 -72.5 -155t-128.5 -79q-59 0 -105.5 43.5t-54.5 108.5q45 148 99 217l479 807z" />
    <glyph glyph-name="quotedblright" unicode="&#x201d;" horiz-adv-x="1815" 
d="M279 1679l-62 33l295 934q51 201 184 201q67 0 113.5 -42.5t46.5 -109.5q0 -28 -9.5 -58.5t-26 -62t-29.5 -55.5zM975 1679l-62 33l295 934q51 201 185 201q67 0 113 -43t46 -109q0 -28 -9.5 -58.5t-26 -62t-29.5 -55.5z" />
    <glyph glyph-name="quotedblbase" unicode="&#x201e;" horiz-adv-x="1815" 
d="M209 -655l295 958q36 86 71.5 131t104.5 45q71 0 119.5 -39.5t48.5 -111.5q0 -58 -57 -152l-521 -864zM905 -655l303 958q54 176 168 176q69 0 118.5 -40t49.5 -111q0 -67 -49 -152l-528 -864z" />
    <glyph glyph-name="dagger" unicode="&#x2020;" horiz-adv-x="2048" 
d="M168 1864q620 -17 713 -17v946q27 -4 70.5 -8t64.5 -8q27 4 75.5 8t75.5 8v-946q99 0 136 -8q128 6 245 12.5t182 9.5t150 3q-4 -20 -8 -61t-8 -66q4 -21 8 -65.5t8 -69.5q-516 16 -713 16v-1634q-24 4 -73 8t-78 8q-20 -4 -65 -8t-70 -8v1634q-189 0 -713 -16
q8 53 8 135q0 78 -8 127z" />
    <glyph glyph-name="daggerdbl" unicode="&#x2021;" horiz-adv-x="2048" 
d="M881 2793q69 0 135 -16q114 16 151 16v-770q279 0 713 25q-3 -23 -7.5 -65t-8.5 -70q4 -21 8 -65.5t8 -69.5q-80 3 -198.5 7.5t-256.5 8.5t-258 4v-823q96 3 324.5 11t388.5 13q0 -29 -16 -143q16 -82 16 -119q-514 17 -713 17v-762q-102 0 -151 8q-41 -8 -135 -8v762
q-286 0 -713 -17q8 45 8 127q0 86 -8 135q156 -5 376 -12.5t337 -11.5v823q-390 0 -713 -20q8 53 8 135q0 78 -8 135q121 -8 185 -10.5t254.5 -7t273.5 -7.5v770z" />
    <glyph glyph-name="bullet" unicode="&#x2022;" horiz-adv-x="2478" 
d="M1241 2097q188 0 348 -94t254 -253.5t94 -348.5q0 -188 -94 -348t-254 -254t-348 -94q-190 0 -349.5 93.5t-253 253t-93.5 349.5t93.5 349.5t253 253t349.5 93.5z" />
    <glyph glyph-name="ellipsis" unicode="&#x2026;" horiz-adv-x="4096" 
d="M688 446q97 0 169.5 -72.5t72.5 -172.5t-73.5 -175t-168.5 -75q-100 0 -175 75t-75 175q0 101 74 173t176 72zM2048 446q102 0 176 -72t74 -173q0 -100 -75 -175t-175 -75t-175 75t-75 175q0 101 74 173t176 72zM3416 446q102 0 176 -72t74 -173q0 -100 -75 -175
t-175 -75t-175 75t-75 175q0 101 74 173t176 72z" />
    <glyph glyph-name="perthousand" unicode="&#x2030;" horiz-adv-x="4096" 
d="M553 -135l1589 2990q16 -4 46.5 -8t43.5 -8q17 4 49 8t46 8l-1582 -2990q-8 0 -106 16q-50 -16 -86 -16zM209 2114q0 155 62.5 303t193.5 242t326 94q294 0 431.5 -188.5t137.5 -450.5q0 -178 -69 -327.5t-200.5 -239t-316.5 -93.5q-254 0 -409.5 166t-155.5 494z
M479 2064q0 -520 295 -520q299 0 299 570q0 217 -49.5 382.5t-232.5 165.5q-312 0 -312 -598zM1552 606q0 251 154 447t436 196q190 0 316.5 -93t185.5 -240.5t59 -309.5q0 -176 -69 -324.5t-200 -237.5t-312 -93q-258 0 -414 162t-156 493zM1831 561q0 -520 291 -520
q295 0 295 565q0 553 -287 553q-193 0 -246 -180t-53 -418zM2871 606q0 160 66 307t200.5 241.5t327.5 94.5q188 0 313.5 -93t184.5 -240.5t59 -309.5q0 -176 -66 -325t-195.5 -237.5t-311.5 -92.5q-261 0 -419.5 162.5t-158.5 492.5zM3154 561q0 -520 287 -520
q163 0 233 160.5t70 404.5q0 220 -49.5 386.5t-229.5 166.5q-199 0 -255 -179.5t-56 -418.5z" />
    <glyph glyph-name="guilsinglleft" unicode="&#x2039;" horiz-adv-x="1360" 
d="M352 922l512 757q59 -71 152 -110l-455 -647l438 -672q-91 -27 -159 -115z" />
    <glyph glyph-name="guilsinglright" unicode="&#x203a;" horiz-adv-x="1360" 
d="M1016 897l-512 -762q-79 90 -152 115l455 647l-438 672q104 45 159 110z" />
    <glyph glyph-name="trademark" unicode="&#x2122;" horiz-adv-x="3887" 
d="M737 1126v1553q-81 0 -184 -6.5t-187 -14t-157 -12.5v147h1245v-147q-227 33 -504 33v-1553q-45 9 -110 9q-58 0 -103 -9zM1753 1126q86 553 137.5 917t91.5 750h66q462 -890 688 -1273q106 187 226 406t254 463.5t225 403.5h49q96 -914 196 -1667q-53 9 -127 9
q-49 0 -94 -9q-13 143 -26 281.5t-30 316t-39 367.5t-36 293q-107 -193 -228 -413t-223 -420.5t-188 -399.5h-24q-102 223 -189 394t-208.5 401.5t-225.5 437.5q-102 -877 -119 -1258q-27 0 -57 4.5t-49 4.5q-15 0 -33.5 -4.5t-36.5 -4.5z" />
    <glyph glyph-name="fi" unicode="&#xf001;" 
d="M401 8v1786h-282q0 10 4 35t4 43q0 19 -4 43t-4 31h282q80 597 299 861.5t488 264.5q28 0 86 -8q-9 -75 -25 -246q8 -33 8 -82l-24 -16q-42 21 -68.5 35t-63 22t-93.5 8q-186 0 -261.5 -111t-82.5 -307q5 -81 14 -148.5t23 -151t20 -121.5h422q-4 -9 -8.5 -31t-8.5 -35
q5 -15 9 -43t8 -43h-414v-1786q-31 0 -94 4t-98 4q-91 0 -136 -8zM1585 -16v1962q54 -6 96 -9.5t64 -7.5q29 4 73 7.5t95 9.5v-1962q-29 4 -83 8t-85 8q-25 -4 -79 -8t-81 -8zM1769 2855q89 0 147 -60.5t58 -148.5q0 -86 -58.5 -145.5t-146.5 -59.5q-84 0 -146 61t-62 144
q0 85 61 147t147 62z" />
    <glyph glyph-name="fl" unicode="&#xf002;" 
d="M418 -25v1819h-291q8 21 8 70q0 57 -8 82h291q35 311 115.5 531.5t188 350t227.5 187t243 57.5q32 0 82 -8q-20 -162 -25 -217q8 -37 8 -111l-24 -16q-72 41 -105 53t-112 12q-337 0 -352 -434q9 -175 73 -405h414l-16 -82q16 -50 16 -70h-406v-1819q-28 5 -87 9t-89 8
q-24 -4 -74 -8t-77 -9zM1569 -25v3089q68 0 176 -17q93 17 151 17v-3089q-35 4 -95 8t-89 9q-26 -4 -70.5 -8t-72.5 -9z" />
  </font>
</defs>
</svg>
